<?xml version="1.0" encoding="utf-8"?>
<!-- Generator: Adobe Illustrator 24.0.2, SVG Export Plug-In . SVG Version: 6.00 Build 0)  -->
<svg version="1.2" baseProfile="tiny-ps" id="Layer_1" xmlns="http://www.w3.org/2000/svg" xmlns:xlink="http://www.w3.org/1999/xlink"
	viewBox="0 0 128 128" xml:space="preserve">

<title> Mobile Black Wallstreet </title>


<rect fill="#FFFFFF" width="128" height="128"/>
<g>
	<g>
		<path fill="#030202" d="M107.5,76.8c0.2,0.2,0.4,0.4,0.6,0.6c0,0.7,0,1.5,0,2.2c-0.1,0-0.2,0.1-0.3,0.1c-3.6,0-7.2,0-10.9,0
			c0,0-0.1,0-0.2,0c-0.6-0.6-1.3-1.1-2-1.8c0,0.2-0.1,0.3-0.1,0.4c0,0.5,0,0.9,0,1.4c-0.1,0-0.2,0.1-0.3,0.1c-3.7,0-7.3,0-11,0
			c0,0-0.1,0-0.2,0c-1.6-1.4-3.3-2.9-5-4.4c-0.1,0.1-0.2,0.2-0.2,0.3c-0.8,1.3-1.9,2.3-3.3,2.9c-1.3,0.6-2.7,0.9-4.2,1.1
			c-3,0.4-6,0.5-9,0.3c-2.4-0.1-4.7-0.2-7.1-0.3c-0.4,0-0.7,0-1.1,0c-3.6,0-7.1,0-10.7,0c-0.1,0-0.3,0-0.4,0c-1-0.9-2.1-1.8-3.1-2.7
			c-0.4,0.3-0.4,0.3-0.8,0.3c-0.8,0-1.5,0-2.3,0c-0.3,0-0.6-0.1-0.9-0.3c-1.6-1.4-3.2-2.8-4.8-4.2c-0.1-0.1-0.3-0.3-0.5-0.4
			c-0.2,0.4-0.2,1.8-0.1,3.5c0.5,0.5,1.1,1,1.7,1.5c0.1,0.4,0,0.8,0,1.1c0,0.4,0,0.8,0,1.1c-0.1,0-0.1,0.1-0.1,0.1c0,0,0,0-0.1,0
			c-3.6,0-7.1,0-10.7,0c-2.8-2.5-5.6-4.9-8.5-7.4c0-0.8,0-1.5,0-2.3c0.1,0,0.3-0.1,0.4-0.1c0.2,0,0.5,0,0.7,0c0.4,0,0.5-0.2,0.6-0.6
			c0-0.1,0-0.2,0-0.3c0-5.4,0-10.8,0-16.2c0-0.2,0-0.3,0-0.5c-0.6-0.5-1.1-1-1.7-1.5c0-0.7,0-1.4,0-2.1c0-0.1,0-0.1,0.1-0.2
			c3.4,0,6.8,0,10.2,0c2.8,2.4,5.6,4.9,8.5,7.4c0.1-0.1,0.1-0.2,0.2-0.2c1-1.7,2-3.4,3-5.1c0.1-0.2,0.2-0.4,0.3-0.7
			c0.2-0.3,0.3-0.6,0.3-1c0-0.1,0-0.3,0.1-0.4c0.2,0,0.3,0,0.5,0c3.1,0,6.3-0.1,9.4,0c2.1,0.1,4.3-0.1,6.4-0.3
			c2.8-0.2,5.5-0.3,8.3-0.2c1.8,0.1,3.7,0.4,5.4,0.9c0.8,0.3,1.7,0.6,2.4,1.1c0.1,0.1,0.2,0.1,0.3,0.2c0,0,0,0,0.1,0
			c0.1-0.3,0-0.5,0-0.8c0-0.3,0-0.5,0-0.7c0.1-0.1,0.1-0.1,0.1-0.1c0,0,0,0,0.1,0c3.7,0,7.5,0,11.2,0c0.9,0.8,1.8,1.6,2.7,2.4
			c0.9,0.8,1.8,1.6,2.7,2.4c0.2-0.5,0.4-1,0.6-1.4c0.2,0,0.3,0,0.5,0c1.2,0,2.4,0,3.6,0c0.4,0,0.7,0.1,1,0.4
			c1.5,1.4,3.1,2.7,4.7,4.1c0.2,0.1,0.3,0.3,0.6,0.4c0.5-1.6,1-3.3,1.5-4.9c-0.3-0.3-0.7-0.6-1-0.9c0-0.7,0-1.4,0-2.1
			c0-0.1,0-0.1,0-0.2c0.6-0.1,8.8-0.1,10.7,0c2.8,2.5,5.6,4.9,8.5,7.4c0,0.7,0,1.5,0,2.3c-0.3,0.1-0.5,0.1-0.8,0
			c-0.4,0-0.7,0.1-0.8,0.5c-0.1,0.1-0.1,0.3-0.2,0.4c-2,5.8-4,11.7-6,17.5C107.6,76.6,107.6,76.7,107.5,76.8z M97.3,49.5
			c0,0.4-0.1,0.8,0,1.2c0.1,0,0.2,0,0.2,0c0.7,0.1,0.9,0.4,0.8,1.1c0,0.2-0.1,0.4-0.2,0.7c-0.4,1.3-0.8,2.6-1.2,3.8
			c-0.8,2.5-1.5,5.1-2.3,7.6c0,0.1-0.1,0.2-0.2,0.3c-0.1-0.3-0.2-0.5-0.3-0.6c-1.3-3.5-2.6-6.9-3.9-10.4c-0.1-0.2-0.1-0.3-0.2-0.5
			c-1.3,0-2.6,0-3.9,0c-0.2,0.6-0.5,1.3-0.7,1.9c-0.2,0.6-0.5,1.3-0.7,1.9c-0.2,0.6-0.5,1.3-0.7,1.9c-0.3,0.7-0.5,1.3-0.8,2
			c-0.2,0.6-0.5,1.3-0.7,1.9c-0.3,0.6-0.4,1.3-0.8,1.9c-0.1-0.3-0.2-0.4-0.2-0.6c-0.4-1.5-0.9-3-1.3-4.5c-0.7-2.2-1.3-4.5-2-6.7
			c-0.1-0.3-0.1-0.5-0.2-0.8c0-0.6,0.2-0.8,0.7-0.9c0.2,0,0.3,0,0.5-0.1c0-0.4,0.1-0.8-0.1-1.2c-1.1-0.1-9.7-0.1-10.2,0
			c0,0.4,0,0.7,0,1.1c0.9,0,1.4,0.5,1.6,1.3c0.1,0.2,0.2,0.4,0.2,0.6c1.4,4.2,2.8,8.4,4.2,12.6c0.4,1.3,0.9,2.7,1.3,4
			c0.1,0.3,0.2,0.7,0.2,1.1c0,0.3-0.1,0.5-0.4,0.6C76.2,71,76,71,75.9,71c0,0.4,0,0.8,0,1.1c0.1,0,0.3,0,0.4,0c3.2,0,6.4,0,9.6,0
			c0.1,0,0.3,0,0.4-0.1c0-0.4,0-0.8,0-1.1c-0.1,0-0.2-0.1-0.3-0.1c-0.5-0.1-0.6-0.3-0.5-0.8c0.1-0.4,0.2-0.7,0.3-1.1
			c0.6-1.8,1.3-3.7,1.9-5.5c0-0.1,0.1-0.2,0.2-0.4c0.1,0.2,0.2,0.3,0.2,0.5c0.2,0.6,0.5,1.3,0.7,1.9c0.5,1.2,0.9,2.4,1.4,3.6
			c0.1,0.4,0.3,0.7,0.2,1.1c0,0.4-0.2,0.5-0.5,0.6c-0.1,0-0.3,0.1-0.5,0.1c0,0.4,0,0.8,0,1.1c0,0,0.1,0,0.1,0.1c0,0,0.1,0,0.1,0
			c3.1,0,6.1,0,9.2,0c0.2,0,0.5,0,0.7,0c0,0,0,0,0.1,0c0,0,0,0,0.1-0.1c0-0.4,0.1-0.7,0-1.1c-0.1,0-0.2,0-0.2-0.1
			c-0.4-0.1-0.6-0.3-0.5-0.7c0-0.2,0.1-0.5,0.2-0.7c2-5.7,3.9-11.5,5.9-17.2c0.1-0.3,0.2-0.5,0.3-0.8c0.2-0.4,0.6-0.7,1.1-0.8
			c0.1,0,0.3,0,0.4,0c0-0.2,0-0.4,0-0.6c0-0.2,0-0.4,0-0.6C106.2,49.5,98.1,49.5,97.3,49.5z M45.5,71c-0.3,0-0.5,0-0.7-0.1
			c-0.7-0.1-1-0.4-1.1-1c0-0.3,0-0.6,0-1c0-3.3,0-6.7,0-10c0-2,0-4.1,0-6.1c0-0.3,0-0.5,0-0.8c0.1-0.8,0.4-1.1,1.1-1.2
			c0.2,0,0.4,0,0.5,0c0.1-0.6,0.1-0.8,0-1.2c-1-0.1-8.7,0-9.2,0c-0.2,0.4-0.3,0.8-0.5,1.2c-0.4,0.7-0.7,1.4-1.1,2
			c-1.6,2.6-3.2,5.3-4.8,7.9c0,0.1-0.1,0.1-0.2,0.2c-0.1-0.1-0.1-0.1-0.2-0.2c-1.5-2.3-3.1-4.7-4.6-7c-0.6-0.9-1.1-1.9-1.7-2.8
			c-0.2-0.4-0.5-0.8-0.5-1.3c-0.3,0-0.5,0-0.7,0c-2.8,0-5.6,0-8.4,0c0,0,0,0-0.1,0c0,0,0,0-0.1,0.1c0,0.3-0.1,0.7,0,1.1
			c0.3,0,0.6,0.1,0.8,0.1c0.5,0.1,0.7,0.3,0.8,0.8c0,0.4,0.1,0.7,0.1,1.1c0,2.5,0,5,0,7.4c0,3,0,5.9,0,8.9c0,0.3,0,0.6-0.1,1
			c-0.1,0.7-0.4,0.9-1.1,1c-0.2,0-0.4,0-0.6,0.1c0,0.4-0.1,0.8,0,1.2c0.6,0.1,7.7,0.1,9.4,0.1c0.1,0,0.2,0,0.3-0.1
			c0.1-0.4,0.1-0.8,0-1.2c-0.2,0-0.4,0-0.6-0.1c-0.6-0.1-0.9-0.3-1-0.9c0-0.2-0.1-0.5-0.1-0.7c0-2.9,0-5.8,0-8.7
			c0-0.1,0-0.2,0.1-0.2c0.1,0.2,0.3,0.4,0.4,0.6c1.9,2.7,3.7,5.5,5.6,8.2c0.2,0.2,0.3,0.5,0.5,0.6c0.9,0,1.7,0,2.6,0
			c0.1-0.2,0.3-0.4,0.4-0.6c1.7-2.8,3.4-5.6,5.2-8.4c0-0.1,0.1-0.2,0.1-0.2c0.1-0.1,0.1-0.2,0.2-0.2c0,0.1,0,0.1,0,0.2
			c0,3,0,5.9,0,8.9c0,0.2,0,0.4,0,0.5c-0.1,0.6-0.4,0.8-1,0.9c-0.2,0-0.5,0-0.7,0.1c0,0.2,0,0.3,0,0.5c0,0.2,0,0.4,0,0.6
			c0.6,0.1,8.6,0.1,10.2,0.1c0.1,0,0.2,0,0.3-0.1C45.5,71.8,45.5,71.4,45.5,71z M46.7,72.2c0.4,0,0.7,0.1,0.9,0.1
			c2,0.1,3.9,0.2,5.9,0.2c2.5,0.1,4.9,0.1,7.4-0.1c1.4-0.1,2.8-0.3,4.1-0.7c1.1-0.3,2.2-0.8,3.1-1.5c1-0.8,1.7-1.7,2.1-3
			c0.2-0.6,0.3-1.2,0.3-1.8c0-1.9-0.7-3.6-2.3-4.7c-0.4-0.3-0.9-0.5-1.4-0.8c-0.1-0.1-0.3,0-0.3-0.3c0.2-0.1,0.3-0.2,0.5-0.3
			c0.5-0.3,1-0.6,1.4-1c0.6-0.6,1.1-1.3,1.2-2.2c0.3-1.8-0.1-3.3-1.4-4.7c-0.5-0.5-1.1-0.9-1.8-1.2c-0.8-0.4-1.6-0.6-2.4-0.8
			c-1.7-0.4-3.5-0.5-5.3-0.5c-2.5,0-5,0.2-7.4,0.3c-1.4,0.1-2.8,0.1-4.2,0.2c-0.2,0-0.3,0-0.5,0c-0.1,0.4-0.1,0.8,0,1.2
			c0.3,0.1,0.6,0.1,0.9,0.2c0.3,0.1,0.5,0.3,0.6,0.6c0.1,0.2,0.1,0.4,0.1,0.6c0,0.3,0,0.6,0,1c0,4,0,8,0,11.9c0,1.4,0,2.8,0,4.2
			c0,0.3,0,0.6-0.1,1c-0.1,0.5-0.4,0.8-0.9,0.9c-0.2,0-0.4,0-0.7,0.1C46.7,71.4,46.7,71.8,46.7,72.2z"/>
		<path fill="#C4C6C6" d="M97.3,49.5c0.8-0.1,9-0.1,9.6,0c0.1,0.2,0,0.4,0,0.6c0,0.2,0,0.4,0,0.6c-0.2,0-0.3,0-0.4,0
			c-0.5,0-0.8,0.3-1.1,0.8c-0.1,0.2-0.2,0.5-0.3,0.8c-2,5.7-3.9,11.5-5.9,17.2C99.1,69.7,99,70,99,70.2c-0.1,0.4,0,0.6,0.5,0.7
			c0.1,0,0.1,0,0.2,0.1c0.1,0.4,0.1,0.8,0,1.1c0,0-0.1,0-0.1,0.1c0,0,0,0-0.1,0c-0.2,0-0.5,0-0.7,0c-3.1,0-6.1,0-9.2,0
			c0,0-0.1,0-0.1,0c0,0,0,0-0.1-0.1c0-0.3,0-0.7,0-1.1c0.2,0,0.3-0.1,0.5-0.1c0.3-0.1,0.5-0.3,0.5-0.6c0-0.4-0.1-0.8-0.2-1.1
			c-0.5-1.2-0.9-2.4-1.4-3.6c-0.2-0.6-0.5-1.3-0.7-1.9c-0.1-0.1-0.1-0.3-0.2-0.5c-0.1,0.2-0.2,0.3-0.2,0.4c-0.7,1.8-1.3,3.7-1.9,5.5
			c-0.1,0.3-0.2,0.7-0.3,1.1c-0.1,0.5,0,0.6,0.5,0.8c0.1,0,0.2,0,0.3,0.1c0.1,0.4,0,0.7,0,1.1c-0.1,0-0.3,0.1-0.4,0.1
			c-3.2,0-6.4,0-9.6,0c-0.1,0-0.3,0-0.4,0c-0.1-0.4,0-0.7,0-1.1c0.1,0,0.3-0.1,0.4-0.1c0.3-0.1,0.5-0.2,0.4-0.6
			c0-0.4-0.1-0.7-0.2-1.1c-0.4-1.3-0.9-2.7-1.3-4c-1.4-4.2-2.8-8.4-4.2-12.6c-0.1-0.2-0.2-0.4-0.2-0.6c-0.3-0.8-0.7-1.3-1.6-1.3
			c-0.1-0.4,0-0.8,0-1.1c0.6-0.1,9.1-0.1,10.2,0c0.1,0.4,0,0.7,0.1,1.2c-0.2,0-0.4,0-0.5,0.1c-0.6,0.1-0.8,0.3-0.7,0.9
			c0,0.3,0.1,0.5,0.2,0.8c0.6,2.2,1.3,4.5,2,6.7c0.4,1.5,0.9,3,1.3,4.5c0.1,0.2,0.1,0.4,0.2,0.6c0.4-0.7,0.6-1.3,0.8-1.9
			c0.3-0.6,0.5-1.3,0.7-1.9c0.3-0.7,0.5-1.3,0.8-2c0.2-0.6,0.5-1.3,0.7-1.9c0.2-0.6,0.5-1.3,0.7-1.9c0.2-0.6,0.5-1.3,0.7-1.9
			c1.3,0,2.6,0,3.9,0c0.1,0.1,0.1,0.3,0.2,0.5c1.3,3.5,2.6,6.9,3.9,10.4c0.1,0.2,0.1,0.4,0.3,0.6c0.1-0.2,0.1-0.3,0.2-0.3
			c0.8-2.5,1.5-5.1,2.3-7.6c0.4-1.3,0.8-2.6,1.2-3.8c0.1-0.2,0.1-0.4,0.2-0.7c0.1-0.6-0.2-1-0.8-1.1c-0.1,0-0.1,0-0.2,0
			C97.2,50.3,97.2,50,97.3,49.5z M97.7,49.9c0,0.1,0,0.3,0.1,0.3c0.1,0.1,0.2,0.1,0.3,0.1c0.4,0.2,0.7,0.5,0.7,1
			c0,0.4,0,0.7-0.1,1.1c-0.5,1.5-0.9,2.9-1.3,4.4c-0.5,1.7-1.1,3.5-1.6,5.2c-0.2,0.8-0.5,1.6-0.7,2.3c0,0.2-0.1,0.3-0.2,0.5
			c-0.1,0.1-0.1,0.3-0.3,0.3c-0.2,0-0.3-0.1-0.3-0.3c-0.1-0.1-0.1-0.3-0.1-0.4c-0.5-1.2-0.9-2.5-1.4-3.7c-0.6-1.6-1.2-3.2-1.8-4.8
			c-0.3-0.8-0.6-1.6-0.9-2.4c-0.1-0.3-0.3-0.5-0.7-0.5c-0.6,0-1.2,0-1.8,0c-0.9,0-0.9-0.2-1.3,0.9c-0.6,1.5-1.1,3-1.7,4.4
			c-0.7,1.8-1.4,3.6-2.1,5.5c-0.1,0.3-0.2,0.6-0.4,0.9c-0.1,0.3-0.2,0.3-0.6,0.2c-0.2-0.9-0.5-1.7-0.7-2.6c-0.4-1.3-0.8-2.7-1.2-4
			c-0.4-1.3-0.8-2.7-1.1-4c-0.2-0.9-0.5-1.7-0.7-2.6c-0.2-0.7,0.3-1.4,0.9-1.5c0.1,0,0.2-0.1,0.3-0.1c0,0,0.1-0.1,0.1-0.1
			c0-0.1,0-0.2-0.1-0.2c-0.2,0-0.3-0.1-0.5-0.1c-2.7,0-5.5,0-8.2,0c-0.2,0-0.3,0-0.5,0.1c-0.1,0-0.1,0.2-0.2,0.3
			c0.2,0.1,0.3,0.1,0.4,0.2c0.4,0.2,0.7,0.4,1,0.8c0.2,0.4,0.4,0.7,0.5,1.1c0.6,1.9,1.3,3.7,1.9,5.6c1.2,3.7,2.5,7.4,3.7,11.1
			c0.1,0.3,0.2,0.7,0.3,1c0.1,0.5-0.1,0.9-0.6,1.2c-0.1,0-0.1,0.1-0.2,0.1c0,0.1,0,0.2,0,0.3c0.2,0,0.4,0,0.6,0c2.7,0,5.4,0,8.1,0
			c0.2,0,0.3,0,0.5,0c0.1,0,0.1-0.1,0.2-0.2c0-0.1,0-0.1-0.1-0.1c-0.1,0-0.1-0.1-0.2-0.1c-0.4-0.2-0.6-0.5-0.6-1
			c0-0.3,0.1-0.6,0.2-0.9c0.8-2.2,1.5-4.4,2.3-6.6c0-0.1,0.1-0.3,0.2-0.4c0.1-0.1,0.2-0.2,0.3-0.2c0.1,0,0.2,0.1,0.2,0.2
			c0.2,0.4,0.3,0.8,0.5,1.2c0.6,1.6,1.2,3.1,1.8,4.7c0.2,0.4,0.3,0.8,0.4,1.2c0.2,0.8,0,1.2-0.7,1.6c-0.1,0-0.1,0.1-0.2,0.1
			c0.1,0.1,0.1,0.2,0.2,0.2c0.2,0,0.4,0,0.6,0c2.6,0,5.1,0,7.7,0c0.2,0,0.3,0,0.5,0c0.1,0,0.2,0,0.3-0.2c0-0.1-0.1-0.2-0.1-0.2
			c-0.1-0.1-0.2-0.1-0.3-0.2c-0.3-0.2-0.4-0.4-0.4-0.8c0-0.3,0.1-0.6,0.2-0.9c0.4-1.3,0.9-2.5,1.3-3.8c0.8-2.3,1.6-4.6,2.3-6.8
			c0.8-2.3,1.6-4.7,2.4-7c0-0.1,0.1-0.2,0.1-0.3c0.3-0.6,0.7-1,1.3-1.2c0.1,0,0.2-0.1,0.3-0.1c-0.1-0.1-0.2-0.2-0.2-0.3
			c-0.1,0-0.3,0-0.4,0c-2.5,0-5.1,0-7.6,0C98,49.9,97.9,49.9,97.7,49.9z"/>
		<path fill="#C4C6C6" d="M45.5,71c0,0.4,0,0.8,0,1.2c-0.1,0-0.2,0.1-0.3,0.1c-1.6,0.1-9.6,0-10.2-0.1c0-0.2,0-0.4,0-0.6
			c0-0.2,0-0.4,0-0.5c0.2-0.2,0.5-0.1,0.7-0.1c0.6-0.1,0.9-0.3,1-0.9c0-0.2,0-0.4,0-0.5c0-3,0-5.9,0-8.9c0-0.1,0-0.1,0-0.2
			c-0.2,0-0.2,0.1-0.2,0.2c-0.1,0.1-0.1,0.2-0.1,0.2c-1.7,2.8-3.4,5.6-5.2,8.4c-0.1,0.2-0.2,0.4-0.4,0.6c-0.9,0-1.7,0-2.6,0
			c-0.2-0.1-0.3-0.4-0.5-0.6c-1.9-2.7-3.7-5.5-5.6-8.2c-0.1-0.2-0.3-0.4-0.4-0.6c-0.2,0-0.1,0.2-0.1,0.2c0,2.9,0,5.8,0,8.7
			c0,0.2,0,0.5,0.1,0.7c0.1,0.6,0.4,0.8,1,0.9c0.2,0,0.4,0,0.6,0.1c0.1,0.4,0.1,0.8,0,1.2c-0.1,0-0.2,0-0.3,0.1
			c-1.7,0.1-8.8,0-9.4-0.1c-0.1-0.4,0-0.7,0-1.2c0.2,0,0.4,0,0.6-0.1c0.7-0.1,1-0.3,1.1-1c0.1-0.3,0.1-0.6,0.1-1c0-3,0-5.9,0-8.9
			c0-2.5,0-5,0-7.4c0-0.4,0-0.7-0.1-1.1c-0.1-0.5-0.3-0.7-0.8-0.8c-0.3,0-0.5-0.1-0.8-0.1c-0.1-0.4,0-0.8,0-1.1
			c0.1,0,0.1-0.1,0.1-0.1c0,0,0,0,0.1,0c2.8,0,5.6,0,8.4,0c0.2,0,0.5,0,0.7,0c0,0.5,0.2,0.9,0.5,1.3c0.5,0.9,1.1,1.9,1.7,2.8
			c1.5,2.4,3.1,4.7,4.6,7c0,0.1,0.1,0.1,0.2,0.2c0.1-0.1,0.1-0.1,0.2-0.2c1.6-2.6,3.2-5.3,4.8-7.9c0.4-0.7,0.8-1.3,1.1-2
			c0.2-0.4,0.3-0.8,0.5-1.2c0.5-0.1,8.2-0.1,9.2,0c0.1,0.4,0.1,0.6,0,1.2c-0.2,0-0.4,0-0.5,0c-0.8,0.1-1.1,0.4-1.1,1.2
			c0,0.3,0,0.5,0,0.8c0,2,0,4.1,0,6.1c0,3.3,0,6.7,0,10c0,0.3,0,0.6,0,1c0.1,0.7,0.4,1,1.1,1C45,71,45.2,71,45.5,71z M35.4,71.7
			c0.3,0,0.6,0,0.8,0c2.7,0,5.4,0,8.1,0c0.2,0,0.3,0,0.5,0c0.1,0,0.2-0.1,0.3-0.1c-0.1-0.1-0.2-0.2-0.2-0.2
			c-0.1-0.1-0.3-0.1-0.4-0.1c-0.6-0.1-0.9-0.5-1-1.1c-0.1-0.4-0.1-0.7-0.1-1.1c0-5.5,0-11.1,0-16.6c0-0.4,0-0.7,0.1-1.1
			c0.1-0.6,0.5-1,1.1-1.1c0.2,0,0.3-0.1,0.5-0.1c0,0,0.1-0.1,0.1-0.2c0-0.1-0.1-0.1-0.1-0.1c-0.2,0-0.4,0-0.5,0c-2.4,0-4.8,0-7.2,0
			c-0.2,0-0.4,0-0.6,0c-0.1,0.2-0.2,0.4-0.3,0.6c-0.5,0.9-0.9,1.8-1.4,2.7c-1.4,2.4-2.9,4.8-4.4,7.2c-0.2,0.3-0.4,0.7-0.6,1
			c-0.1,0.2-0.3,0.2-0.4,0c-0.2-0.3-0.4-0.6-0.5-0.9c-1.6-2.5-3.3-4.9-4.9-7.5c-0.6-0.9-1.1-1.8-1.5-2.7c-0.1-0.2-0.1-0.3-0.2-0.5
			c-0.1,0-0.2,0-0.2,0c-2.5,0-5.1,0-7.6,0c-0.1,0-0.3,0-0.4,0.1c-0.1,0-0.2,0.1-0.1,0.3c0.1,0,0.3,0,0.4,0c0.6,0.1,1,0.5,1.2,1.1
			c0,0.2,0,0.4,0,0.6c0,5.9,0,11.7,0,17.6c0,0.1,0,0.3,0,0.4c-0.1,0.7-0.4,1.1-1.1,1.3c-0.2,0-0.3,0.1-0.5,0.1
			c-0.1,0-0.1,0.1-0.1,0.2c0.2,0.1,0.4,0.1,0.7,0.1c1.7,0,3.4,0,5.1,0c0.9,0,1.7,0,2.6,0c0.1,0,0.3,0,0.4-0.2c0,0-0.1-0.1-0.2-0.2
			c-0.1-0.1-0.3-0.1-0.4-0.1c-0.6-0.2-0.9-0.6-1-1.2C21,69.6,21,69.1,21,68.5c0-2.6,0-5.2,0-7.9c0-0.2,0-0.5,0-0.7
			c0-0.2,0.1-0.4,0.1-0.5c0-0.1,0.3-0.2,0.3-0.1c0.1,0.1,0.2,0.3,0.3,0.4c0.9,1.3,1.8,2.6,2.7,3.9c1,1.4,2,2.9,2.9,4.3
			c0.3,0.4,0.6,0.9,0.9,1.3c0.6,0,1.3,0,1.9,0c0.2,0,0.4-0.1,0.5-0.3c0.6-0.9,1.2-1.9,1.8-2.8c1.2-1.9,2.3-3.8,3.5-5.8
			c0.2-0.3,0.4-0.7,0.7-1c0.1-0.1,0.2-0.2,0.4-0.1c0,0.2,0,0.3,0,0.5c0,3.3,0,6.5,0,9.8c0,0.2,0,0.3,0,0.5c-0.1,0.7-0.4,1.2-1.1,1.3
			c-0.1,0-0.3,0.1-0.4,0.1C35.5,71.5,35.5,71.6,35.4,71.7z"/>
		<path fill="#C1C3C3" d="M46.7,72.2c-0.1-0.5-0.1-0.8,0-1.2c0.2,0,0.5,0,0.7-0.1c0.5-0.1,0.8-0.3,0.9-0.9c0.1-0.3,0.1-0.6,0.1-1
			c0-1.4,0-2.8,0-4.2c0-4,0-8,0-11.9c0-0.3,0-0.6,0-1c0-0.2-0.1-0.4-0.1-0.6c-0.1-0.3-0.3-0.5-0.6-0.6c-0.3-0.1-0.6-0.1-0.9-0.2
			c-0.1-0.4-0.1-0.8,0-1.2c0.2,0,0.3,0,0.5,0c1.4-0.1,2.8-0.1,4.2-0.2c2.5-0.2,4.9-0.4,7.4-0.3c1.8,0,3.5,0.1,5.3,0.5
			c0.8,0.2,1.7,0.4,2.4,0.8c0.7,0.3,1.3,0.7,1.8,1.2c1.2,1.3,1.7,2.9,1.4,4.7c-0.2,0.9-0.6,1.6-1.2,2.2c-0.4,0.4-0.9,0.7-1.4,1
			c-0.2,0.1-0.3,0.2-0.5,0.3c0,0.2,0.2,0.2,0.3,0.3c0.5,0.3,0.9,0.5,1.4,0.8c1.6,1.1,2.3,2.7,2.3,4.7c0,0.6-0.1,1.2-0.3,1.8
			c-0.4,1.2-1.1,2.2-2.1,3c-0.9,0.7-2,1.2-3.1,1.5c-1.3,0.4-2.7,0.6-4.1,0.7c-2.5,0.2-4.9,0.1-7.4,0.1c-2,0-3.9-0.1-5.9-0.2
			C47.4,72.3,47.1,72.2,46.7,72.2z M47.2,71.6c0,0,0,0.1,0,0.1c0.4,0.1,0.8,0.2,1.2,0.2c0.6,0,1.2,0,1.8,0c0.2,0,0.4,0,0.5,0
			c0.3,0,0.6,0.1,0.9,0.1c2,0,4,0,6,0c1.2,0,2.4,0,3.7-0.1c1-0.1,2.1-0.3,3.1-0.6c1.2-0.3,2.3-0.8,3.3-1.5c0.9-0.7,1.5-1.5,1.9-2.5
			c0.3-0.8,0.4-1.6,0.3-2.4c0-1.2-0.5-2.3-1.3-3.2c-0.6-0.6-1.3-1.1-2.1-1.4c-0.3-0.1-0.6-0.2-0.8-0.3c-0.1-0.1-0.3-0.1-0.2-0.3
			c0-0.2,0.1-0.2,0.2-0.3c0.1,0,0.2-0.1,0.3-0.1c0.3-0.1,0.5-0.2,0.8-0.4c0.7-0.4,1.3-0.9,1.8-1.6c0.4-0.6,0.6-1.2,0.7-2
			c0-1.1-0.2-2.1-0.9-3c-0.6-0.8-1.4-1.4-2.3-1.8c-1.7-0.7-3.4-1-5.2-1.1c-1.3-0.1-2.7,0-4,0c-1.3,0-2.7,0.2-4,0.2
			c-0.6,0.1-1.2,0.1-1.8,0.1c-0.1,0-0.1,0-0.2,0c-0.4,0.1-0.8,0.1-1.2,0.1c-0.8,0-1.5,0.1-2.2,0.1c-0.1,0-0.2,0.1-0.2,0.2
			c0.1,0,0.1,0.1,0.2,0.1c0.8,0.1,1.2,0.6,1.4,1.3c0.1,0.4,0.1,0.8,0.1,1.1c0,5.4,0,10.9,0,16.3c0,0.2,0,0.4,0,0.5
			c-0.1,0.9-0.4,1.6-1.4,1.8C47.4,71.4,47.3,71.5,47.2,71.6z"/>
		<path fill="#C7C8C8" d="M55.2,67.7c-0.1-0.6-0.1-4.4,0-5.2c0.4-0.1,0.8-0.2,1.2-0.2c1.2,0,2.3,0,3.5,0c1,0,2,0.2,2.9,0.7
			c0.6,0.4,0.9,0.9,1,1.6c0,0.2,0,0.4,0,0.6c0,0.7-0.3,1.3-0.9,1.7c-0.3,0.2-0.7,0.4-1.1,0.5c-0.9,0.3-1.9,0.4-2.9,0.4
			c-0.2,0-0.4,0-0.5,0.1c-0.3,0-0.6,0.1-0.8,0c-0.5-0.1-1.1-0.1-1.6-0.1C55.7,67.8,55.4,67.8,55.2,67.7z M55.6,62.9
			c-0.1,0.5-0.1,3.6,0,4.3c0.1,0,0.2,0.1,0.3,0.1c1.5,0.1,3.1,0.1,4.6-0.1c0.5-0.1,1.1-0.2,1.6-0.4c1-0.4,1.3-1.1,1.1-2.2
			c0,0,0-0.1,0-0.1c-0.1-0.4-0.3-0.7-0.6-0.9c-0.2-0.1-0.5-0.3-0.7-0.4c-0.5-0.1-1-0.2-1.5-0.3c-1.5-0.2-3,0-4.6,0
			C55.7,62.9,55.7,62.9,55.6,62.9z"/>
		<path fill="#C3C8C8" d="M55.1,58.7c0-0.1,0-0.2,0-0.3c0-1.3,0-2.6,0-3.9c0-0.1,0-0.2,0-0.3c0-0.1,0.1-0.2,0.2-0.2
			c0.1,0,0.3-0.1,0.5-0.1c1.3,0,2.7,0,4,0c0.8,0,1.6,0.3,2.3,0.7c0.3,0.2,0.4,0.4,0.6,0.7c0.3,0.7,0.4,1.4,0,2.1
			c-0.2,0.5-0.7,0.7-1.2,0.9c-0.6,0.2-1.3,0.3-1.9,0.5c-1,0.2-2,0.1-3.1,0.1C56.2,58.9,55.7,58.8,55.1,58.7z M55.6,58.4
			c0.6,0,1.2,0.1,1.8,0.1c1,0,2,0,2.9-0.2c0.5-0.1,1.1-0.2,1.5-0.5c0.4-0.2,0.6-0.5,0.7-1c0.1-0.9-0.2-1.4-0.9-1.8
			c-0.2-0.1-0.4-0.2-0.6-0.2c-0.5-0.1-1.1-0.2-1.6-0.2c-1,0-2,0-3,0c-0.3,0-0.5,0.1-0.8,0.1C55.5,55.1,55.5,57.7,55.6,58.4z"/>
		<path fill="#040404" d="M55.6,62.9c0.1,0,0.1-0.1,0.2-0.1c1.5,0,3-0.2,4.6,0c0.5,0.1,1,0.2,1.5,0.3c0.3,0.1,0.5,0.2,0.7,0.4
			c0.3,0.2,0.6,0.5,0.6,0.9c0,0,0,0.1,0,0.1c0.2,1.1-0.1,1.7-1.1,2.2c-0.5,0.2-1,0.4-1.6,0.4c-1.5,0.3-3.1,0.2-4.6,0.1
			c-0.1,0-0.2-0.1-0.3-0.1C55.5,66.6,55.5,63.5,55.6,62.9z"/>
		<path fill="#050303" d="M55.6,58.4c-0.1-0.7-0.1-3.2,0-3.8c0.3,0,0.5-0.1,0.8-0.1c1,0,2,0,3,0c0.5,0,1.1,0.1,1.6,0.2
			c0.2,0,0.4,0.1,0.6,0.2c0.7,0.4,1,0.9,0.9,1.8c0,0.4-0.3,0.7-0.7,1c-0.5,0.3-1,0.4-1.5,0.5c-1,0.2-1.9,0.2-2.9,0.2
			C56.8,58.4,56.2,58.4,55.6,58.4z"/>
	</g>
</g>
</svg>
