<?xml version="1.0" encoding="utf-8"?>
<!-- Generator: Adobe Illustrator 24.3.0, SVG Export Plug-In . SVG Version: 6.00 Build 0)  -->
<svg version="1.1" id="Layer_1" xmlns="http://www.w3.org/2000/svg" xmlns:xlink="http://www.w3.org/1999/xlink" x="0px" y="0px"
	 viewBox="0 0 600 600" style="enable-background:new 0 0 600 600;" xml:space="preserve">
<style type="text/css">
	.st0{fill:#262323;stroke:#FFFFFF;stroke-miterlimit:10;}
	.st1{fill-rule:evenodd;clip-rule:evenodd;fill:#262323;stroke:#FFFFFF;stroke-miterlimit:10;}
	.st2{fill:#231F20;}
	.st3{fill:#262323;}
	.st4{fill:#FFFFFF;}
	.st5{fill:#D3D3D3;}
	.st6{fill:#4D4D4D;}
	.st7{fill:#FFFFFF;stroke:#000000;stroke-width:2;stroke-miterlimit:10;}
	.st8{fill:#333333;}
	.st9{fill:#1A1A1A;}
	.st10{stroke:#D3D3D3;stroke-width:3;stroke-miterlimit:10;}
	.st11{opacity:0.13;}
	.st12{fill:none;stroke:#FF0000;stroke-width:4;stroke-miterlimit:10;}
	.st13{fill:none;stroke:#CCCCCC;stroke-width:3;}
	.st14{fill:#D40813;}
	.st15{fill:#B3B3B3;}
</style>
<g>
	<g>
		<path class="st2" d="M302.1,439.59c-73.95,0-134.11-60.16-134.11-134.11c0-73.95,60.16-134.11,134.11-134.11
			S436.2,231.54,436.2,305.49C436.2,379.43,376.04,439.59,302.1,439.59z M302.1,179.66c-69.38,0-125.83,56.45-125.83,125.83
			c0,69.38,56.45,125.83,125.83,125.83c69.38,0,125.83-56.45,125.83-125.83C427.92,236.11,371.48,179.66,302.1,179.66z"/>
	</g>
	<g>
		<path class="st2" d="M302.1,409.36c-57.28,0-103.87-46.6-103.87-103.87s46.6-103.87,103.87-103.87s103.87,46.6,103.87,103.87
			S359.37,409.36,302.1,409.36z M302.1,209.89c-52.71,0-95.59,42.88-95.59,95.59s42.88,95.59,95.59,95.59
			c52.71,0,95.59-42.88,95.59-95.59S354.81,209.89,302.1,209.89z"/>
	</g>
	<g>
		<path d="M453.89,345.06l-3.49,1.62l-2.1,1v9.5l-17.18,3.24v-0.06l-88.33,16.75l-19.1,3.6v-0.46l-0.46,0.09v-0.46l-0.45,0.08v-0.45
			l-0.45,0.08v-0.46l-0.46,0.09v-0.45l-0.45,0.08v-0.46l-0.46,0.08v-0.45l-0.45,0.09v-0.48l-0.46,0.09v-0.45l-0.45,0.08v-0.46
			l-0.46,0.09v-0.46l-0.45,0.09v-0.46l-0.46,0.08v-0.26l-1.36,2.27c-1.89,3.12-5.36,5.18-10.35,6.13c-0.96,0.17-1.87,0.2-2.46,0.2
			c-0.22,0-0.4,0-0.57-0.02l-0.94-0.02l-63.63,12.19l-28.77,5.42l-23.47,4.45v-0.46l-0.45,0.08v-0.46l-0.46,0.09v-0.46l-0.45,0.09
			v-0.46l-0.46,0.09v-0.46l-0.45,0.08v-0.45l-0.45,0.09v-0.48l-0.46,0.09v-0.45l-0.46,0.08v-0.46l-0.45,0.09v-0.46l-0.46,0.09v-0.46
			l-0.45,0.08v-0.45l-0.45,0.08v-0.46l-0.46,0.09v-0.46l-0.45,0.09v-0.46l-0.45,0.08v-0.45l-0.46,0.08v-0.46l-0.46,0.09v-0.46
			l-0.45,0.09v-0.46l-0.46,0.08v-0.45l-0.45,0.09v-0.48l-0.45,0.09v-0.45l-0.46,0.08v-0.46l-0.45,0.09v-0.46l-0.46,0.09v-0.46
			l-0.45,0.08v-0.45l-0.45,0.08v-0.46l-0.48,0.09v-0.46l-0.45,0.09v-0.46l-0.45,0.08v-0.45l-0.46,0.08v-0.46l-0.45,0.09v-0.46
			l-0.45,0.09v-0.46l-0.46,0.08v-0.45l-0.45,0.09v-0.48l-0.46,0.09v-0.45l-0.45,0.08v-0.46l-0.45,0.09v-0.46l-0.46,0.09v-0.46
			l-0.46,0.08v-0.45l-0.45,0.08v-0.46l-0.46,0.09v-0.46l-0.45,0.09v-0.46l-0.45,0.08v-0.45l-0.46,0.08v-0.46l-0.45,0.09v-0.46
			l-0.45,0.09v-0.46l-0.46,0.08v-0.45l-0.46,0.09v-0.48l-0.45,0.09v-0.45l-0.46,0.08v-0.46l-0.45,0.09v-0.46l-0.45,0.09v-0.46
			l-0.46,0.08v-0.45l-0.45,0.08v-0.46l-0.46,0.09v-0.46l-0.45,0.09v-0.46l-0.45,0.08v-0.45l-0.46,0.08v-0.46l-0.46,0.09v-0.46
			l-0.45,0.09v-0.46l-0.46,0.08v-0.45l-0.45,0.09v-0.48l-0.45,0.09v-0.45l-0.46,0.08v-0.46l-0.45,0.09v-0.46l-0.45,0.09v-0.46
			l-0.46,0.08v-0.45l-0.46,0.08v-0.46l-0.45,0.09v-0.46l-0.46,0.09v-0.46l-0.45,0.08v-0.45l-0.46,0.08v-0.46l-0.45,0.09v-0.46
			l-0.45,0.09v-0.46l-0.46,0.08v-0.45l-0.45,0.09v-0.48l-0.45,0.09v-0.45l-0.46,0.08v-8.25l-0.23-0.63l-0.29-0.77l-0.17,0.02v-0.45
			l-0.45,0.08v-0.46l-0.46,0.09v-0.46l-0.45,0.09v-0.46l-0.46,0.08v-0.45l-0.45,0.09l-0.02-0.48l-0.45,0.09v-0.45l-0.45,0.08v-0.46
			l-0.46,0.08v-0.51l-0.05-8.73l-0.03-3.6l-0.42,0.05v-13.72h0.02l0.08-0.02l3-0.56v-20.97l-0.36,0.08v-0.46l-0.45,0.08v-0.45
			l-0.46,0.08v-0.46l-0.45,0.09v-0.46l-0.46,0.09v-0.46l-0.45,0.08v-0.45l-0.46,0.08v-12.73l-0.23,0.05v-13.67h0.02l2.7-0.51v-17.24
			h-0.02l-0.42,0.08v-0.46l-0.45,0.09v-0.46l-0.46,0.09v-0.46l-0.45,0.08v-0.45l-0.45,0.09v-0.48l-0.48,0.09v-13.66h0.02l25.57-4.82
			l0.02,0.45l0.05-0.02l0.39-0.08l0.03,0.46l0.42-0.08l0.05,0.45l0.42-0.08l0.03,0.45l0.42-0.08l0.03,0.46l0.43-0.09l0.03,0.46
			l0.43-0.08l0.02,0.45l0.43-0.08l0.03,0.45l0.42-0.08l0.03,0.46l0.43-0.09l0.02,0.45l0.43-0.06l0.03,0.45l0.43-0.08l0.02,0.45
			l0.43-0.08l0.03,0.46l0.42-0.09l0.05,0.45l0.42-0.06l0.03,0.45l0.42-0.09l0.03,0.46l0.26-0.05l0.17-0.03v0.15l1.95-4.05v-0.06
			l0.23-3.82l25.96-4.91v0.46l0.46-0.08v0.45l0.45-0.08v0.46l0.45-0.09v0.46l0.46-0.09v0.46l0.45-0.08v0.45l0.46-0.09v0.48
			l0.46-0.09v0.45l0.45-0.08v0.46l0.46-0.09v0.46l0.45-0.09v0.46l0.45-0.08v0.45l0.31-0.05l0.93-0.9c4.76-4.6,11.03-7.91,17.18-9.07
			c1.81-0.36,3.66-0.53,5.49-0.53c5.24,0,10.23,1.45,14.04,4.08l5.76,3.96v-10.78l3.66-0.96c3.8-1,11.14-2.84,17.66-4.09
			c3.31-0.6,7.15-1.25,10.72-1.25c3.15,0,5.73,0.48,7.88,1.47l5.21,2.39v-6.55h0.02l32.32-6.12l20.7-3.91v0.46h0.02v12.73l-2.7,0.51
			v12.87l4.36-0.82l1.07-0.2l1.95-0.37l0.77-1.84l0.85-2.07l6.86,0.28l3.82,0.15v-8.93l-0.42,0.06v-0.45l-0.45,0.09v-0.48
			l-0.46,0.09v-0.45l-0.45,0.08v-0.46l-0.46,0.08v-0.45l-0.46,0.09v-13.67h0.02l35.34-6.67c0.85-0.17,1.56-0.42,2.13-0.77l5.83-3.55
			l0.12,0.57l0.11-0.06l0.22-0.12l0.14,0.57l0.31-0.2l0.14,0.57l0.32-0.2l0.14,0.57l0.32-0.2l0.12,0.57l0.32-0.19l0.12,0.57
			l0.34-0.22l0.12,0.59l0.32-0.2l0.14,0.57l0.32-0.2l0.12,0.57l0.32-0.2l0.14,0.59l0.31-0.22l0.14,0.59l0.32-0.2l0.12,0.57l0.32-0.2
			l0.14,0.57l0.31-0.2l0.14,0.59l0.32-0.22l0.14,0.57l0.32-0.19l0.12,0.57l0.32-0.2l0.12,0.57l0.34-0.2l0.12,0.57l0.32-0.2
			l0.14,0.57l0.31-0.19l0.14,0.57l0.32-0.22l0.14,0.59l0.31-0.2l0.14,0.57l0.32-0.2l0.12,0.57l0.32-0.2l0.14,0.59l0.31-0.22
			l0.14,0.59l0.32-0.2l0.12,0.57l0.34-0.2l0.12,0.57l0.32-0.2l0.12,0.59l0.34-0.22l0.12,0.57l0.32-0.19l0.14,0.57l0.31-0.2
			l0.14,0.57l0.32-0.2l0.12,0.57l0.32-0.2l0.14,0.57l0.31-0.19l0.14,0.57l0.32-0.22l0.14,0.59l0.32-0.2l0.12,0.57l0.32-0.2
			l0.12,0.57l0.34-0.2l0.12,0.57l0.32-0.2l0.14,0.59l0.32-0.2l0.12,0.56l0.32-0.19l0.14,0.57l0.31-0.2l0.14,0.57l0.32-0.2l0.12,0.57
			l0.32-0.19l0.14,0.56l0.31-0.19l0.14,0.57l0.34-0.2l0.11,0.57l0.34-0.2l0.12,0.57l0.32-0.19l0.12,0.56l0.34-0.2l0.12,0.59
			l0.32-0.2l0.14,0.57l0.31-0.2l0.14,0.57l0.32-0.2l0.14,0.57l0.31-0.2l0.14,0.59l0.32-0.2l0.12,0.56l0.32-0.19l0.14,0.57l0.31-0.2
			l0.14,0.57l0.32-0.2l0.12,0.57l0.34-0.19l0.12,0.56l0.32-0.19l0.12,0.57l0.34-0.2l0.12,0.57l0.32-0.2l0.14,0.57l0.31-0.19
			l0.14,0.56l0.32-0.2l0.12,0.59l0.32-0.2l0.14,0.57l0.31-0.2l0.14,0.57l0.32-0.2l0.14,0.57l0.32-0.2l0.12,0.59l0.32-0.2l0.12,0.56
			l0.34-0.19l0.12,0.57l0.32-0.2l0.14,0.57l0.31-0.2l0.14,0.57l0.32-0.19l0.14,0.56l0.31-0.19l0.14,0.57l0.32-0.2l0.12,0.57
			l0.32-0.2l0.14,0.57l0.31-0.19l0.14,0.56l0.34-0.2l0.11,0.59l0.34-0.2l0.12,0.57l0.32-0.2l5.15,22.39l-4.31,2.44l0.22,0.03
			l-0.05,0.29l0.49,0.08l-0.03,0.29l0.48,0.08l-0.03,0.29l0.49,0.08l-0.05,0.29l0.49,0.09l-0.02,0.29l0.48,0.08l-0.03,0.29
			l0.48,0.08l-0.03,0.29l0.49,0.08l-0.03,0.29l0.49,0.09l-0.05,0.29l0.49,0.08l-0.03,0.29l0.48,0.08l-3.75,33.48l-5.11,0.96
			l-8.05,9.33l0.02,0.26l0.42-0.08l0.05,0.46l0.42-0.09l0.03,0.46l0.42-0.08l0.03,0.45l0.42-0.08l0.05,0.45l0.42-0.08l0.03,0.46
			l0.42-0.09l0.05,0.46l0.42-0.08l0.03,0.45l0.42-0.08l0.03,0.45l0.43-0.08l0.03,0.46l0.42-0.09l0.05,0.45l0.42-0.06l0.03,0.45
			l0.42-0.09l0.05,0.46l0.42-0.08l0.03,0.45l0.42-0.08l0.03,0.45l0.42-0.08l0.05,0.46l0.42-0.09l0.03,0.46l0.42-0.08l0.03,0.45
			l0.42-0.08l0.05,0.45l0.43-0.08l0.02,0.46l0.43-0.09l0.03,0.45l0.42-0.06l0.05,0.45l0.42-0.08l0.03,0.45l0.42-0.08l0.03,0.46
			l0.42-0.09l0.05,0.45l0.42-0.06l0.03,0.45l0.42-0.09l0.05,0.46l0.42-0.08l0.03,0.45l0.42-0.08l0.03,0.45l0.43-0.08l0.03,0.46
			l0.43-0.09l0.03,0.46l0.42-0.08l0.03,0.45l0.42-0.08l0.05,0.45l0.42-0.08l0.03,0.46l0.42-0.09l0.03,0.45l0.42-0.06L453.89,345.06z
			"/>
		<path class="st3" d="M453.89,345.06l-3.48,1.63l-2.11,0.99v9.51l-35.5-29.7l-3.32-7.53c0,0,5.4-5.41,5.79-5.96
			c0.39-0.54-1.09-8.38-1.72-10.17c-0.63-1.8-1.5-12.54-1.5-12.54l-4.93-2.13l-4.07-6.08c0,0-4.85-9.16-4.85-9.4
			s3.91-5.16,3.91-5.16l5.72-5.16l5.59,0.25l3.75-33.49l-8.92-1.41l8.46-4.81l-4.91-21.34l0.22-0.13l0.13,0.58l0.32-0.21l0.13,0.58
			l0.32-0.2l0.13,0.58l0.33-0.21l0.12,0.58l0.33-0.2l0.12,0.58l0.33-0.21l0.12,0.58l0.33-0.2l0.13,0.58l0.32-0.21l0.14,0.58
			l0.32-0.2l0.13,0.58l0.32-0.21l0.14,0.58l0.32-0.2l0.13,0.58l0.32-0.21l0.14,0.58l0.32-0.2l0.13,0.58l0.32-0.21l0.14,0.58
			l0.33-0.2l0.12,0.58l0.33-0.21l0.12,0.58l0.33-0.2l0.12,0.58l0.33-0.21l0.14,0.58l0.32-0.2l0.13,0.58l0.32-0.21l0.14,0.58
			l0.32-0.2l0.13,0.58l0.32-0.21l0.14,0.58l0.32-0.2l0.13,0.58l0.32-0.21l0.13,0.58l0.33-0.2l0.12,0.58l0.33-0.21l0.12,0.58
			l0.33-0.2l0.12,0.58l0.33-0.21l0.13,0.58l0.32-0.2l0.13,0.58l0.32-0.21l0.13,0.58l0.32-0.2l0.13,0.58l0.32-0.21l0.13,0.58
			l0.32-0.2l0.13,0.58l0.32-0.21l0.13,0.58l0.33-0.2l0.12,0.56l0.33-0.2l0.12,0.58l0.33-0.2l0.12,0.56l0.33-0.2l0.13,0.58l0.32-0.2
			l0.14,0.56l0.32-0.2l0.13,0.58l0.32-0.2l0.14,0.56l0.32-0.2l0.13,0.58l0.32-0.2l0.14,0.56l0.32-0.2l0.13,0.58l0.33-0.2l0.12,0.56
			l0.33-0.2l0.12,0.58l0.33-0.2l0.12,0.56l0.33-0.2l0.13,0.58l0.32-0.2l0.14,0.56l0.32-0.2l0.13,0.58l0.32-0.2l0.14,0.56l0.32-0.2
			l0.13,0.58l0.32-0.2l0.14,0.56l0.32-0.2l0.13,0.58l0.32-0.2l0.13,0.56l0.33-0.2l0.12,0.58l0.33-0.2l0.12,0.56l0.33-0.2l0.12,0.58
			l0.33-0.2l0.13,0.56l0.32-0.2l0.13,0.58l0.32-0.2l0.13,0.56l0.32-0.2l0.13,0.58l0.32-0.2l0.13,0.56l0.32-0.2l0.13,0.58l0.32-0.2
			l0.13,0.56l0.33-0.2l0.12,0.58l0.33-0.2l0.12,0.56l0.33-0.2l0.12,0.58l0.33-0.2l0.13,0.56l0.32-0.2l0.14,0.58l0.32-0.2l0.13,0.56
			l0.32-0.2l0.14,0.58l0.32-0.2l0.13,0.56l0.32-0.2l0.14,0.58l0.32-0.2l0.13,0.56l0.33-0.2l0.12,0.58l0.33-0.2l0.12,0.56l0.33-0.2
			l5.14,22.39l-4.31,2.44l0.21,0.04l-0.04,0.29l0.49,0.07l-0.04,0.29l0.49,0.09l-0.04,0.29l0.49,0.07l-0.04,0.29l0.49,0.09
			l-0.02,0.29l0.48,0.07l-0.02,0.29l0.48,0.09l-0.02,0.29l0.49,0.07l-0.04,0.29l0.49,0.09l-0.04,0.29l0.49,0.07l-0.04,0.29
			l0.49,0.09l-3.77,33.49l-5.1,0.96l-8.06,9.32l0.02,0.27l0.42-0.07l0.04,0.45l0.42-0.09l0.04,0.45l0.42-0.07l0.04,0.45l0.42-0.09
			l0.04,0.45l0.42-0.07l0.04,0.45l0.42-0.09l0.04,0.45l0.42-0.07l0.04,0.45l0.42-0.09l0.04,0.45l0.43-0.07l0.02,0.45l0.43-0.09
			l0.04,0.45l0.42-0.07l0.04,0.45l0.42-0.09l0.04,0.45l0.42-0.07l0.04,0.45l0.42-0.09l0.04,0.45l0.42-0.07l0.04,0.45l0.42-0.09
			l0.04,0.45l0.42-0.07l0.04,0.45l0.42-0.09l0.04,0.45l0.43-0.07l0.02,0.45l0.43-0.09l0.04,0.45l0.42-0.07l0.04,0.45l0.42-0.09
			l0.04,0.45l0.42-0.07l0.04,0.45l0.42-0.09l0.04,0.45l0.42-0.07l0.04,0.45l0.42-0.09l0.04,0.45l0.42-0.07l0.04,0.45l0.42-0.09
			l0.04,0.45l0.43-0.07l0.02,0.45l0.43-0.09l0.04,0.45l0.42-0.07l0.04,0.45l0.42-0.09l0.04,0.45l0.42-0.07l0.04,0.45l0.42-0.09
			l0.04,0.45l0.42-0.07L453.89,345.06z"/>
		<path d="M418.39,315.35l-3.46,1.64l-2.13,0.99v9.52l-17.15,3.23v-0.06l-88.36,16.75l-19.08,3.62v-13.86l-6.84,11.37
			c-1.87,3.12-5.35,5.18-10.34,6.12c-0.97,0.19-1.87,0.2-2.46,0.2h-0.57l-0.94-0.02l-63.63,12.19l-28.79,5.42l-23.45,4.43v-8.25
			l-0.23-0.62l-0.49-1.33l-1.08-2.9l-2.53,0.48l-0.05-8.73l-0.03-3.6v-0.53l-0.4,0.06v-13.74l0.08-0.02l3-0.56v-23.72l-3.07,0.57
			v-12.73l-0.23,0.05v-13.67l2.69-0.51v-19.55l-2.69,0.51v-13.66l25.57-4.84l0.06,0.97l0.26,4.14l4.53,6.13l2.26-4.7l2.12-4.43
			v-0.08l0.23-3.82l25.96-4.91v9.66l5.01-4.84l1.24-1.19c4.77-4.6,11.03-7.91,17.18-9.07c1.82-0.36,3.66-0.53,5.49-0.53
			c5.24,0,10.23,1.45,14.04,4.08l5.76,3.96v-10.78l3.66-0.96c3.8-1,11.14-2.86,17.66-4.08c3.31-0.63,7.17-1.27,10.74-1.27
			c3.15,0,5.72,0.48,7.86,1.47l5.21,2.41h0.02v-6.57l32.32-6.12l20.72-3.91v13.72l-2.7,0.51v12.87l4.36-0.82l1.07-0.2l1.95-0.37
			l0.77-1.84l0.85-2.07l6.86,0.28l3.82,0.15v-11.77l-2.69,0.51v-13.66l35.35-6.67c0.83-0.15,1.55-0.42,2.13-0.77l5.81-3.54
			l0.23,1.02l4.91,21.35h-0.02l-8.45,4.81l8.92,1.41l-3.77,33.5l-5.1,0.96l-9.1,10.52l8.61,13.29l8.34-1.58L418.39,315.35z"/>
		<g>
			<path class="st4" d="M185.82,251.29c-0.09,1.64-0.39,2.33-0.79,3.15l-8.05,15.7l-9.12-12.47c-0.4-0.56-0.65-1.25-0.74-2.84
				l-16.1,3.03v3.69c2.46-0.46,2.7-0.22,2.7,1.39v25.76c0,1.42-0.29,1.93-2.7,2.38v3.68l16.98-3.2v-3.68
				c-2.3,0.43-2.75,0.12-2.75-1.36v-10.94l8.75,11.06l5.05-0.96l7.69-14.26v11.05c0,1.62-0.29,1.92-2.69,2.36v3.69l18.15-3.43v-3.68
				c-2.46,0.46-2.7,0.15-2.7-1.36v-25.76c0-1.51,0.29-1.96,2.7-2.43v-3.68L185.82,251.29z"/>
			<path class="st4" d="M231.44,241.65c-10.85,2.06-22.13,11.73-22.13,24v0.2c0.12,12.61,11.39,16.87,22.08,14.86
				c10.72-2.02,22.08-10.46,22.23-23.18v-0.25C253.63,244.68,242.29,239.61,231.44,241.65z M240.56,260.01
				c-0.11,5.87-5.04,9.44-9.16,10.21c-4.08,0.76-8.9-1.3-9.01-6.83c-0.02-0.06-0.02-0.14-0.02-0.2c0-5.89,4.6-9.95,9.07-10.8
				c4.13-0.77,9.13,1.08,9.13,7.4C240.58,259.87,240.58,259.95,240.56,260.01z"/>
			<path class="st4" d="M293.77,247.89c-0.11-0.05-0.23-0.09-0.36-0.14c2.33-1.92,4.11-4.37,4.22-7.43v-0.28
				c0-9.66-10.6-8.41-19.58-6.71c-5.93,1.13-12.65,2.78-17.32,4.02v3.48c2.3-0.43,2.69-0.12,2.69,1.84v25.22
				c0,1.72-0.23,2.01-2.69,2.47v3.63c4.81-0.56,11.03-1.5,18.15-2.84c9.1-1.72,19.61-5.62,19.76-15.59
				c0.02-0.08,0.02-0.17,0.02-0.25C298.67,251.17,296.46,248.94,293.77,247.89z M285.69,257.55v0.05c-0.09,0.97-1.04,2.36-5.96,3.29
				c-0.83,0.15-2.26,0.39-3.54,0.53v-4.62c1.17-0.31,2.66-0.59,3.54-0.76c5.55-1.05,5.98,0.29,5.98,1.37
				C285.71,257.46,285.71,257.5,285.69,257.55z M284.6,244.54c-0.12,0.9-1.08,2.1-4.87,2.81c-0.99,0.19-2.36,0.49-3.54,0.62v-3.83
				c1.13-0.31,2.5-0.66,3.54-0.87c4.13-0.77,4.9,0.36,4.9,1.04C284.63,244.39,284.63,244.46,284.6,244.54z"/>
			<path class="st4" d="M305.87,228.63v3.68c2.32-0.43,2.7,0.19,2.7,1.5v25.66c0,1.28-0.29,1.92-2.7,2.38v3.68l18.15-3.43v-3.68
				c-2.39,0.45-2.69-0.08-2.69-1.36v-25.65c0-1.38,0.34-2.09,2.69-2.53v-3.68L305.87,228.63z"/>
			<path class="st4" d="M363.53,241.39c-1.08,2.61-1.96,3.31-2.9,3.49l-14.23,2.69v-20.8c0-1.48,0.45-2.15,2.7-2.58v-3.72
				l-18.15,3.43v3.68c2.3-0.43,2.7,0.23,2.7,1.65v25.4c0,1.42-0.4,2.04-2.7,2.47v3.68l29.54-5.58c1.38-0.25,2.6-0.05,3.68,0.25
				l2.7-13.47l0.09-0.45L363.53,241.39z"/>
			<path class="st4" d="M407.94,232.95c-1.13,2.72-2.02,3.48-3.58,3.77l-15.7,2.97v-3.38l8.39-1.59c1.22-0.23,1.61-0.06,1.72,1.3
				l3.82-0.73V222l-3.52,0.66c-0.11,1.3-0.34,1.64-2.01,1.95l-8.39,1.59v-2.95l15.79-2.98c1.42-0.26,2.26,0.17,3.43,2.35l3.15-1.79
				l0.09-0.05l-2.8-12.18c-0.93,0.57-2.16,1.1-3.79,1.39l-31.35,5.93v3.68c2.3-0.45,2.7,0.03,2.7,1.5v25.46
				c0,1.56-0.29,2.12-2.7,2.56v3.68l31.6-5.96c1.24-0.23,2.8-0.03,3.69,0.23l2.75-13.15l0.09-0.43L407.94,232.95z"/>
		</g>
		<g>
			<path class="st4" d="M188.91,315.49c-0.12-0.05-0.25-0.09-0.37-0.14c2.69-2.19,4.73-5.04,4.81-8.56
				c0.02-0.08,0.02-0.15,0.02-0.23c0-11.03-12.1-9.59-22.34-7.65c-6.77,1.27-14.45,3.17-19.76,4.56v3.99
				c2.63-0.51,3.07-0.14,3.07,2.1v28.77c0,1.96-0.28,2.3-3.07,2.83v4.14c5.49-0.65,12.59-1.7,20.72-3.24
				c10.38-1.96,22.39-6.43,22.56-17.83v-0.25C194.53,319.23,191.98,316.68,188.91,315.49z M179.73,326.54c0,0.02,0.02,0.03,0,0.05
				c-0.11,1.11-1.19,2.7-6.81,3.75c-0.94,0.19-2.56,0.43-4.03,0.6v-5.27c1.34-0.37,3.03-0.68,4.03-0.86
				c6.34-1.21,6.83,0.32,6.83,1.56C179.75,326.43,179.75,326.48,179.73,326.54z M178.49,311.69c-0.15,1-1.27,2.39-5.58,3.2
				c-1.11,0.22-2.69,0.57-4.03,0.71v-4.37c1.3-0.36,2.86-0.76,4.03-0.97c4.71-0.9,5.61,0.39,5.61,1.17
				C178.52,311.51,178.52,311.6,178.49,311.69z"/>
			<path class="st4" d="M241.16,313.27c-1.22,2.97-2.24,3.77-3.29,3.97l-16.24,3.08v-23.75c0-1.67,0.49-2.44,3.07-2.92v-4.26
				l-20.72,3.91v4.2c2.64-0.49,3.09,0.26,3.09,1.88v29c0,1.62-0.45,2.32-3.09,2.81v4.2l33.71-6.37c1.56-0.29,2.97-0.05,4.19,0.28
				l3.11-15.44l0.09-0.45L241.16,313.27z"/>
			<path class="st4" d="M299.17,310.98l-12.08-26.93c-0.14-0.32-0.31-0.83-0.36-1.25c-0.03-0.11-0.05-0.22-0.05-0.31
				c0-0.22,0.28-0.66,1.51-0.9v-4.2l-21.32,4.03v4.2c1.17-0.23,1.34,0.31,1.34,0.48c0,0.06-0.02,0.17-0.05,0.29
				c-0.08,0.39-0.26,1-0.53,1.65l-12.14,31.12c-0.79,2.06-0.96,2.49-3.35,2.94v4.2l19.87-3.75v-4.2c-1.39,0.26-1.82,0.08-1.93-0.08
				c0,0-0.02,0,0-0.02c-0.03-0.03-0.03-0.06-0.03-0.09c0-0.11,0-0.4,0.11-0.76c0.06-0.23,0.12-0.46,0.17-0.65
				c2.19,0.09,4.59,0.03,7.06-0.43c2.41-0.45,4.53-1.25,6.83-2.18c0.05,0.15,0.17,0.36,0.22,0.51c0.12,0.26,0.23,0.53,0.23,0.7
				c0,0.09-0.02,0.17-0.05,0.23c-0.11,0.32-0.59,0.49-2.26,0.82v4.19l20.16-3.8v-4.2C300.4,312.99,300.02,312.85,299.17,310.98z
				 M279.98,304.74c-0.96,0.37-1.98,0.68-3.26,0.91c-1.45,0.28-2.33,0.34-3.29,0.31h-0.12l3.09-10.54l3.74,9.26
				C280.08,304.69,280.02,304.72,279.98,304.74z"/>
			<path class="st4" d="M335.17,300.21c-7.22,1.36-11.9-1.33-12.52-6.89c0-0.01,0-0.02,0-0.04c-0.04-0.36-0.06-0.74-0.07-1.12v-0.15
				c0-6.83,5.76-11.88,12.59-13.18c6.72-1.27,9.41-0.09,11.31,3.57l3.6-2.09l0.09-0.06l-3.63-14.71c-0.85,0.66-1.85,1.25-2.86,1.44
				c-1.58,0.29-5.04-0.22-11.65,1.02c-13.83,2.61-24.35,14.06-24.35,26.71v0.45c0,0.2,0,0.4,0.02,0.59
				c0.54,12.38,10.57,19.08,24.34,16.49c6.1-1.16,10.58-3.12,11.59-3.31c0.9-0.17,1.79,0.05,2.86,0.36l3.6-15.61l0.09-0.43
				l-3.69-0.65C344.58,297.04,341.95,298.93,335.17,300.21z"/>
			<path class="st4" d="M404.26,291.03c-3.07-3.69-8.61-12.39-10.72-17.07c-0.05-0.11-0.09-0.2-0.14-0.31l10.12-11.71
				c1.58-1.81,2.36-2.56,4.99-3.06v-4.2l-23.13,4.37v4.19c1.41-0.26,1.68-0.14,1.68,0.14c0,0.08-0.02,0.15-0.08,0.28
				c-0.09,0.22-0.31,0.56-0.76,1.05l-8.9,10.24v-7.88c0-1.75,0.28-2.35,3.07-2.89v-4.19l-20.72,3.91v4.19
				c2.86-0.53,3.09-0.06,3.09,1.71v29.17c0,1.73-0.34,2.3-3.09,2.83v4.19l20.72-3.91v-4.19c-2.69,0.49-3.07,0.12-3.07-1.67v-5.87
				l4.53-4.84c2.41,5.32,5.21,9.83,8.58,14.68l18.42-3.48v-4.2C406.61,292.93,405.72,292.78,404.26,291.03z"/>
		</g>
		<g>
			<path class="st4" d="M169.01,350.49v1.48c0.14-0.02,0.25-0.03,0.34-0.03c0.31,0,0.32,0.14,0.32,0.19c0,0.14-0.05,0.29-0.08,0.42
				l-1.76,7.06l-2.33-6.41l-2.98,0.57l-2.3,7.32l-2.13-6.41c-0.02-0.08-0.03-0.22-0.03-0.29c0-0.14,0.03-0.34,0.8-0.49v-1.48
				l-7.17,1.36v1.48c0.15-0.03,0.29-0.05,0.4-0.05c0.4,0,0.54,0.2,0.71,0.65l3.62,9.7c0.05,0.09,0.19,0.45,0.19,0.54
				c0,0.12-0.06,0.19-0.53,0.28v1.48l7.26-1.36v-1.47c-0.08,0-0.14,0.02-0.19,0.02c-0.25,0-0.28-0.11-0.28-0.17
				c0-0.12,0.11-0.48,0.14-0.6l0.77-2.83l1.02,2.61c0.03,0.09,0.15,0.32,0.15,0.42c0,0.12-0.06,0.23-0.62,0.34v1.48l7.14-1.34v-1.48
				c-0.11,0.02-0.19,0.03-0.25,0.03c-0.17,0-0.2-0.06-0.2-0.12c0-0.08,0.06-0.34,0.11-0.42l3.74-11.33
				c0.22-0.68,0.37-0.83,1.14-0.97v-1.5L169.01,350.49z"/>
			<path class="st4" d="M201.27,357.81c-0.34,0-0.46-0.17-0.68-0.63l-4.3-9.56c-0.05-0.14-0.14-0.39-0.14-0.54
				c0-0.08,0.11-0.25,0.54-0.32v-1.48l-7.57,1.42v1.48c0.08,0,0.14-0.02,0.19-0.02c0.25,0,0.29,0.14,0.29,0.19
				c0,0.11-0.08,0.4-0.2,0.7l-4.31,11.05c-0.28,0.73-0.34,0.88-1.19,1.04v1.48l7.06-1.33v-1.48c-0.19,0.03-0.32,0.05-0.42,0.05
				c-0.23,0-0.28-0.08-0.28-0.11c0-0.05,0-0.14,0.03-0.28c0.02-0.08,0.05-0.15,0.06-0.23c0.19,0.02,0.39,0.02,0.59,0.02
				c0.34,0,0.68-0.02,1.04-0.05c0.29-0.03,0.59-0.06,0.88-0.12c0.85-0.15,1.61-0.43,2.43-0.77c0.02,0.06,0.06,0.14,0.08,0.19
				c0.05,0.09,0.08,0.19,0.08,0.25c0,0.17-0.09,0.23-0.82,0.37v1.48l7.15-1.34v-1.48C201.56,357.78,201.41,357.81,201.27,357.81z
				 M191.41,355.39l1.1-3.74l1.33,3.29c-0.36,0.14-0.74,0.26-1.21,0.34c-0.34,0.06-0.6,0.11-0.83,0.11H191.41z"/>
			<path class="st4" d="M225.87,349.33c-0.43,1.05-0.79,1.33-1.17,1.41l-5.75,1.08v-8.42c0-0.59,0.17-0.87,1.08-1.04v-1.51
				l-7.34,1.39v1.5c0.19-0.05,0.34-0.06,0.48-0.06c0.51,0,0.6,0.26,0.6,0.73v10.29c0,0.57-0.15,0.82-1.08,0.99v1.5l11.96-2.26
				c0.17-0.03,0.36-0.05,0.51-0.05c0.36,0,0.68,0.06,0.97,0.14l1.13-5.64L225.87,349.33z"/>
			<path class="st4" d="M251.31,344.52c-0.43,1.05-0.8,1.34-1.17,1.41l-5.76,1.1v-8.42c0-0.6,0.19-0.88,1.1-1.05v-1.5l-7.35,1.37
				v1.5c0.2-0.05,0.36-0.06,0.48-0.06c0.19,0,0.32,0.03,0.42,0.11c0.03,0.02,0.06,0.05,0.08,0.08c0.03,0.03,0.05,0.06,0.06,0.11
				c0.03,0.08,0.05,0.17,0.05,0.26c0.02,0.06,0.02,0.11,0.02,0.17v10.29c0,0.57-0.15,0.82-1.1,1v1.48l11.96-2.26
				c0.19-0.03,0.36-0.05,0.51-0.05c0.36,0,0.68,0.06,0.99,0.14l1.13-5.64L251.31,344.52z"/>
			<path class="st4" d="M274,336.3l-3.41-0.17c-1.44-0.06-1.59-0.09-1.59-0.37c0-0.28,0.26-0.71,2.58-1.14
				c0.51-0.09,0.97-0.14,1.42-0.14c1.45,0,2.55,0.51,3.04,1.48l1.38-0.74l-1.34-5.16c-0.42,0.23-0.71,0.34-1.17,0.43
				c-0.06,0.02-0.14,0.02-0.25,0.02h-0.56c-0.6,0-1.53,0.03-2.81,0.28c-4.43,0.83-7.71,3.09-7.71,6.46c0,2.72,2.02,3.54,4.16,3.65
				l3.29,0.14c1.34,0.06,1.53,0.15,1.53,0.43c0,0.36-0.56,0.9-3.06,1.37c-0.68,0.12-1.25,0.19-1.76,0.19
				c-0.62,0-1.11-0.09-1.51-0.28c-0.26-0.12-0.49-0.28-0.71-0.48c-0.29-0.29-0.53-0.66-0.73-1.13l-1.42,0.74l1.45,5.5
				c0.42-0.23,0.79-0.37,1.08-0.43c0.49-0.09,0.99-0.11,1.48-0.11h0.02c0.65,0,1.3,0.03,1.95-0.02c0.25-0.02,0.51-0.05,0.77-0.09
				c4.9-0.93,7.9-3.14,7.9-6.89C278,337.73,276.58,336.43,274,336.3z"/>
			<path class="st4" d="M304.19,324.61c-0.32,0.23-0.9,0.53-1.58,0.65l-11.7,2.21c-0.22,0.05-0.42,0.06-0.62,0.06
				c-0.34,0-0.66-0.05-0.93-0.12l-1.14,5.58l1.36,0.12c0.39-0.99,0.65-1.34,1.39-1.48l3.21-0.6v8.47c0,0.65-0.19,0.85-1.1,1.02v1.48
				l7.35-1.39v-1.48c-0.22,0.05-0.4,0.06-0.56,0.06c-0.4,0-0.54-0.17-0.54-0.62v-8.51l3.2-0.6c0.12-0.02,0.23-0.03,0.32-0.03
				c0.48,0,0.77,0.26,1.08,0.97l1.36-0.63L304.19,324.61z"/>
			<path class="st4" d="M330.59,332.9c-0.91-1.02-1.62-1.82-2.18-2.84c2.09-1.21,3.4-2.95,3.4-5.11c0-1.16-0.32-2.04-0.88-2.69
				c-0.09-0.11-0.2-0.22-0.31-0.31c-0.11-0.11-0.22-0.19-0.32-0.26c-0.48-0.32-1.04-0.54-1.67-0.7c-0.62-0.14-1.31-0.2-2.04-0.2
				c-1.07,0-2.21,0.14-3.37,0.36c-1.56,0.29-5.1,1.13-7.15,1.61v1.45c0.28-0.05,0.48-0.08,0.63-0.08c0.45,0,0.46,0.22,0.46,0.59
				v10.49c0,0.63-0.09,0.77-1.1,0.96v1.48l7.35-1.39v-1.48c-0.26,0.05-0.48,0.08-0.63,0.08c-0.4,0-0.46-0.19-0.46-0.62v-2.07
				l1.16-0.22c0.48,1.28,1.27,2.84,2.29,3.88l6.04-1.14v-1.48c-0.2,0.03-0.36,0.05-0.48,0.05
				C330.93,333.24,330.78,333.09,330.59,332.9z M322.33,325.61c0.39-0.09,0.82-0.2,1.21-0.26c0.19-0.05,0.37-0.08,0.54-0.09
				c0.32-0.05,0.62-0.09,0.87-0.11c0.12-0.02,0.25-0.02,0.36-0.02c0.37,0,0.63,0.05,0.82,0.14c0.08,0.03,0.14,0.08,0.17,0.12
				c0.2,0.17,0.26,0.42,0.26,0.73c0,0.91-0.77,1.58-2.98,1.99c-0.37,0.08-0.82,0.15-1.24,0.2V325.61z"/>
			<path class="st4" d="M356.8,324.58c-0.46,1.11-0.82,1.41-1.45,1.53l-6.37,1.2v-1.37l3.4-0.63c0.15-0.03,0.27-0.05,0.37-0.03
				c0,0,0.01,0,0.01,0c0.09,0.01,0.16,0.05,0.21,0.13c0.06,0.09,0.09,0.23,0.11,0.43l1.55-0.29v-5.39l-1.42,0.28
				c-0.05,0.53-0.14,0.66-0.82,0.79l-3.4,0.63v-1.19l6.4-1.2c0.11-0.02,0.2-0.03,0.28-0.03c0.42,0,0.73,0.25,1.11,0.97l1.31-0.74
				l-1.13-4.93c-0.39,0.23-0.88,0.45-1.53,0.57l-12.7,2.39v1.48c0.23-0.03,0.4-0.06,0.56-0.06c0.45,0,0.54,0.22,0.54,0.68v10.31
				c0,0.63-0.12,0.85-1.1,1.04v1.5l12.79-2.43c0.08-0.02,0.15-0.02,0.25-0.02c0.45-0.05,0.96,0.02,1.25,0.11l1.14-5.49L356.8,324.58
				z"/>
			<path class="st4" d="M383.45,319.55c-0.46,1.1-0.82,1.41-1.45,1.51l-6.37,1.21v-1.38l3.4-0.63c0.12-0.03,0.22-0.03,0.29-0.03
				c0.28,0,0.37,0.14,0.4,0.56l1.55-0.29v-5.38l-1.42,0.26c-0.05,0.53-0.14,0.66-0.82,0.79l-3.4,0.65v-1.19l6.4-1.22
				c0.11-0.02,0.19-0.03,0.28-0.03c0.2,0,0.39,0.06,0.56,0.22c0.05,0.05,0.09,0.08,0.14,0.14c0.14,0.15,0.28,0.36,0.42,0.63
				l1.31-0.74l-1.13-4.93c-0.39,0.22-0.88,0.43-1.53,0.56l-12.7,2.39v1.5c0.23-0.05,0.4-0.06,0.54-0.06c0.46,0,0.56,0.22,0.56,0.66
				v10.31c0,0.63-0.12,0.87-1.1,1.04v1.5l12.79-2.41c0.15-0.03,0.32-0.05,0.49-0.05c0.37,0,0.76,0.06,1,0.14l1.14-5.5L383.45,319.55
				z"/>
			<path class="st4" d="M411.62,304.32c-0.31,0.23-0.88,0.53-1.56,0.65l-11.7,2.21c-0.22,0.05-0.42,0.06-0.62,0.06
				c-0.34,0-0.66-0.05-0.94-0.12l-1.13,5.58l1.36,0.12c0.39-0.99,0.65-1.34,1.39-1.48l3.21-0.6v8.47c0,0.65-0.19,0.83-1.1,1.02v1.48
				l7.35-1.39v-1.48c-0.23,0.05-0.4,0.06-0.56,0.06c-0.4,0-0.54-0.17-0.54-0.62v-8.51l3.2-0.6c0.12-0.02,0.23-0.03,0.32-0.03
				c0.48,0,0.77,0.26,1.08,0.97l1.36-0.63L411.62,304.32z"/>
		</g>
		<g>
			<path class="st5" d="M169.01,350.49v1.48c0.14-0.02,0.25-0.03,0.34-0.03c0.31,0,0.32,0.14,0.32,0.19c0,0.14-0.05,0.29-0.08,0.42
				l-1.76,7.06l-2.33-6.41l-2.98,0.57l-2.3,7.32l-2.13-6.41c-0.02-0.08-0.03-0.22-0.03-0.29c0-0.14,0.03-0.34,0.8-0.49v-1.48
				l-7.17,1.36v1.48c0.15-0.03,0.29-0.05,0.4-0.05c0.4,0,0.54,0.2,0.71,0.65l3.62,9.7c0.05,0.09,0.19,0.45,0.19,0.54
				c0,0.12-0.06,0.19-0.53,0.28v1.48l7.26-1.36v-1.47c-0.08,0-0.14,0.02-0.19,0.02c-0.25,0-0.28-0.11-0.28-0.17
				c0-0.12,0.11-0.48,0.14-0.6l0.77-2.83l1.02,2.61c0.03,0.09,0.15,0.32,0.15,0.42c0,0.12-0.06,0.23-0.62,0.34v1.48l7.14-1.34v-1.48
				c-0.11,0.02-0.19,0.03-0.25,0.03c-0.17,0-0.2-0.06-0.2-0.12c0-0.08,0.06-0.34,0.11-0.42l3.74-11.33
				c0.22-0.68,0.37-0.83,1.14-0.97v-1.5L169.01,350.49z M174,351.34l-3.72,11.29c-0.08,0.2-0.15,0.53-0.15,0.74
				c0,0.31,0.14,0.62,0.4,0.82l-4.84,0.91c0.12-0.15,0.2-0.36,0.2-0.63c0-0.25-0.11-0.48-0.23-0.76l-1-2.61l-1.02-2.6l-0.73,2.69
				l-0.77,2.8c-0.06,0.22-0.17,0.62-0.17,0.88c0,0.32,0.14,0.65,0.43,0.87l-5.04,0.94c0.09-0.15,0.15-0.34,0.15-0.59
				c0-0.26-0.14-0.65-0.23-0.87l-3.62-9.7c-0.11-0.26-0.29-0.77-0.79-1.05l4.51-0.85c-0.15,0.19-0.26,0.43-0.26,0.76
				c0,0.19,0.03,0.39,0.09,0.59l2.12,6.41l0.9,2.7l0.87-2.72l2.13-6.8l1.67-0.32l2.09,5.69l1.02,2.81l0.73-2.92l1.73-7
				c0.06-0.19,0.12-0.42,0.12-0.7c0-0.34-0.17-0.7-0.49-0.91l4.4-0.82C174.28,350.63,174.14,350.92,174,351.34z"/>
			<path class="st5" d="M201.27,357.81c-0.34,0-0.46-0.17-0.68-0.63l-4.3-9.56c-0.05-0.14-0.14-0.39-0.14-0.54
				c0-0.08,0.11-0.25,0.54-0.32v-1.48l-7.57,1.42v1.48c0.08,0,0.14-0.02,0.19-0.02c0.25,0,0.29,0.14,0.29,0.19
				c0,0.11-0.08,0.4-0.2,0.7l-4.31,11.05c-0.28,0.73-0.34,0.88-1.19,1.04v1.48l7.06-1.33v-1.48c-0.19,0.03-0.32,0.05-0.42,0.05
				c-0.23,0-0.28-0.08-0.28-0.11c0-0.05,0-0.14,0.03-0.28c0.02-0.08,0.05-0.15,0.06-0.23c0.19,0.02,0.39,0.02,0.59,0.02
				c0.34,0,0.68-0.02,1.04-0.05c0.29-0.03,0.59-0.06,0.88-0.12c0.85-0.15,1.61-0.43,2.43-0.77c0.02,0.06,0.06,0.14,0.08,0.19
				c0.05,0.09,0.08,0.19,0.08,0.25c0,0.17-0.09,0.23-0.82,0.37v1.48l7.15-1.34v-1.48C201.56,357.78,201.41,357.81,201.27,357.81z
				 M196.18,359.36c0.11-0.17,0.19-0.37,0.19-0.63c0-0.25-0.09-0.45-0.15-0.59c-0.02-0.05-0.03-0.09-0.06-0.15l-0.32-0.9l-0.9,0.36
				c-0.83,0.34-1.5,0.59-2.24,0.73c-0.54,0.11-1.11,0.15-1.75,0.15c-0.19,0-0.37-0.02-0.54-0.02l-0.71-0.03l-0.22,0.68
				c-0.02,0.08-0.05,0.17-0.06,0.26c-0.08,0.25-0.08,0.43-0.08,0.51c0,0.31,0.15,0.63,0.46,0.83l-4.36,0.82
				c0.2-0.25,0.36-0.56,0.51-0.97l4.31-11.03c0.08-0.2,0.26-0.7,0.26-1.04c0-0.32-0.17-0.68-0.48-0.88v-0.02l5.41-1.02
				c-0.2,0.26-0.22,0.53-0.22,0.65c0,0.32,0.12,0.7,0.22,0.93l4.3,9.55c0.12,0.28,0.32,0.73,0.76,0.99L196.18,359.36z
				 M193.36,351.31l-0.99-2.46l-0.74,2.55l-1.1,3.74l-0.34,1.14l1.19,0.03h0.2c0.37,0,0.74-0.03,1.22-0.12
				c0.51-0.11,0.96-0.23,1.39-0.4l0.83-0.36l-0.34-0.85L193.36,351.31z M192.63,355.28c-0.34,0.06-0.6,0.11-0.83,0.11
				c-0.06,0.02-0.14,0.02-0.22,0.02c-0.05,0-0.11,0-0.17-0.02l1.1-3.74l1.33,3.29C193.48,355.08,193.09,355.2,192.63,355.28z
				 M194.69,354.58l-1.33-3.28l-0.99-2.46l-0.74,2.55l-1.1,3.74l-0.34,1.14l1.19,0.03h0.2c0.37,0,0.74-0.03,1.22-0.12
				c0.51-0.11,0.96-0.23,1.39-0.4l0.83-0.36L194.69,354.58z M192.63,355.28c-0.34,0.06-0.6,0.11-0.83,0.11
				c-0.06,0.02-0.14,0.02-0.22,0.02c-0.05,0-0.11,0-0.17-0.02l1.1-3.74l1.33,3.29C193.48,355.08,193.09,355.2,192.63,355.28z
				 M194.69,354.58l-1.33-3.28l-0.99-2.46l-0.74,2.55l-1.1,3.74l-0.34,1.14l1.19,0.03h0.2c0.37,0,0.74-0.03,1.22-0.12
				c0.51-0.11,0.96-0.23,1.39-0.4l0.83-0.36L194.69,354.58z M192.63,355.28c-0.34,0.06-0.6,0.11-0.83,0.11
				c-0.06,0.02-0.14,0.02-0.22,0.02c-0.05,0-0.11,0-0.17-0.02l1.1-3.74l1.33,3.29C193.48,355.08,193.09,355.2,192.63,355.28z"/>
			<path class="st5" d="M225.87,349.33c-0.43,1.05-0.79,1.33-1.17,1.41l-5.75,1.08v-8.42c0-0.59,0.17-0.87,1.08-1.04v-1.51
				l-7.34,1.39v1.5c0.19-0.05,0.34-0.06,0.48-0.06c0.51,0,0.6,0.26,0.6,0.73v10.29c0,0.57-0.15,0.82-1.08,0.99v1.5l11.96-2.26
				c0.17-0.05,0.34-0.05,0.51-0.05c0.36,0,0.68,0.06,0.97,0.14l1.13-5.64L225.87,349.33z M225.4,353.96
				c-0.08-0.02-0.17-0.02-0.25-0.02c-0.23,0-0.46,0.02-0.68,0.06l-10.2,1.93c0.25-0.28,0.42-0.68,0.42-1.25V344.4
				c0-0.85-0.36-1.27-0.74-1.47l4.53-0.85c-0.28,0.29-0.46,0.71-0.46,1.31v9.53l1.1-0.2l5.75-1.08c0.49-0.09,0.85-0.36,1.14-0.71
				L225.4,353.96z"/>
			<path class="st5" d="M251.31,344.52c-0.43,1.05-0.8,1.34-1.17,1.41l-5.76,1.1v-8.42c0-0.6,0.19-0.88,1.1-1.05v-1.5l-7.35,1.37
				v1.5c0.2-0.05,0.36-0.06,0.48-0.06c0.19,0,0.32,0.03,0.42,0.11c0.03,0.02,0.06,0.05,0.08,0.08c0.03,0.03,0.05,0.06,0.06,0.11
				c0.03,0.08,0.05,0.17,0.05,0.26c0.02,0.06,0.02,0.11,0.02,0.17v10.29c0,0.57-0.15,0.82-1.1,1v1.48l11.96-2.26
				c0.19-0.03,0.36-0.05,0.51-0.05c0.36,0,0.68,0.06,0.99,0.14l1.13-5.64L251.31,344.52z M250.85,349.16
				c-0.09-0.02-0.17-0.02-0.26-0.02c-0.23,0-0.45,0.03-0.68,0.06l-10.2,1.93c0.26-0.28,0.43-0.68,0.43-1.25V339.6
				c0-0.85-0.36-1.27-0.74-1.47l4.53-0.85c-0.28,0.29-0.46,0.71-0.46,1.33v9.52l1.08-0.2l5.76-1.08c0.48-0.09,0.85-0.36,1.14-0.71
				L250.85,349.16z"/>
			<path class="st5" d="M274,336.3l-3.41-0.17c-1.44-0.06-1.59-0.09-1.59-0.37c0-0.28,0.26-0.71,2.58-1.14
				c0.51-0.09,0.97-0.14,1.42-0.14c1.45,0,2.55,0.51,3.04,1.48l1.38-0.74l-1.34-5.16c-0.42,0.23-0.71,0.34-1.17,0.43
				c-0.06,0.02-0.14,0.02-0.25,0.02h-0.56c-0.6,0-1.53,0.03-2.81,0.28c-4.43,0.83-7.71,3.09-7.71,6.46c0,2.72,2.02,3.54,4.16,3.65
				l3.29,0.14c1.34,0.06,1.53,0.15,1.53,0.43c0,0.36-0.56,0.9-3.06,1.37c-0.68,0.12-1.25,0.19-1.76,0.19
				c-0.62,0-1.11-0.09-1.51-0.28c-0.28-0.12-0.51-0.28-0.71-0.48c-0.29-0.29-0.53-0.66-0.73-1.13l-1.42,0.74l1.45,5.5
				c0.42-0.23,0.79-0.37,1.08-0.43c0.49-0.09,0.99-0.11,1.48-0.11h0.02c0.4,0,0.79,0.02,1.17,0.02c0.25,0,0.51-0.02,0.77-0.03
				c0.25-0.02,0.51-0.05,0.77-0.09c4.9-0.93,7.9-3.14,7.9-6.89C278,337.73,276.58,336.43,274,336.3z M269.93,345.82
				c-0.48,0.09-0.96,0.11-1.38,0.11h-0.57c-0.22-0.02-0.42-0.02-0.62-0.02c-0.45,0-1.04,0.02-1.65,0.14
				c-0.09,0.02-0.19,0.03-0.29,0.06l-0.97-3.69c0.73,1.04,1.79,1.53,3.28,1.53c0.57,0,1.21-0.08,1.93-0.22
				c1.89-0.36,3.82-0.9,3.82-2.27c0-1.24-1.24-1.3-2.41-1.34l-3.31-0.15c-2.94-0.12-3.28-1.62-3.28-2.72c0-2.66,2.61-4.74,6.97-5.56
				c1.24-0.23,2.1-0.26,2.64-0.26h0.32l0.23,0.02c0.19,0,0.32-0.02,0.42-0.03c0.12-0.03,0.26-0.06,0.37-0.09l0.9,3.45l-0.02,0.02
				c-0.76-0.79-1.9-1.22-3.32-1.22c-0.51,0-1.04,0.06-1.59,0.15c-1.61,0.31-3.34,0.74-3.34,2.06c0,1.17,1.04,1.22,2.47,1.3
				l3.41,0.17c1.44,0.06,3.14,0.57,3.14,2.61C277.09,342.92,274.68,344.93,269.93,345.82z"/>
			<path class="st5" d="M304.19,324.61c-0.32,0.23-0.9,0.53-1.58,0.65l-11.7,2.21c-0.22,0.05-0.42,0.06-0.62,0.06
				c-0.34,0-0.66-0.05-0.93-0.12l-1.14,5.58l1.36,0.12c0.39-0.99,0.65-1.34,1.39-1.48l3.21-0.6v8.47c0,0.65-0.19,0.85-1.1,1.02v1.48
				l7.35-1.39v-1.48c-0.22,0.05-0.4,0.06-0.56,0.06c-0.4,0-0.54-0.17-0.54-0.62v-8.51l3.2-0.6c0.12-0.02,0.23-0.03,0.32-0.03
				c0.48,0,0.77,0.26,1.08,0.97l1.36-0.63L304.19,324.61z M302.87,328.49c-0.15,0-0.31,0.02-0.49,0.05l-3.2,0.62l-0.74,0.14v9.27
				c0,0.71,0.29,1.14,0.7,1.36l-4.43,0.83c0.25-0.28,0.42-0.68,0.42-1.27v-9.58l-1.1,0.22l-3.21,0.6c-0.6,0.11-1,0.36-1.31,0.68
				l0.6-2.97h0.2c0.26,0,0.54-0.02,0.79-0.06l11.7-2.21c0.25-0.05,0.51-0.12,0.76-0.2l0.68,3.11
				C303.92,328.75,303.49,328.49,302.87,328.49z"/>
			<path class="st5" d="M330.59,332.9c-0.91-1.02-1.62-1.82-2.18-2.84c2.09-1.21,3.4-2.95,3.4-5.11c0-1.16-0.32-2.04-0.88-2.69
				c-0.09-0.11-0.2-0.22-0.31-0.31c-0.11-0.11-0.22-0.19-0.32-0.26c-0.46-0.32-1.04-0.56-1.67-0.7c-0.62-0.14-1.31-0.2-2.04-0.2
				c-1.07,0-2.21,0.14-3.37,0.36c-1.56,0.29-5.1,1.13-7.15,1.61v1.45c0.28-0.05,0.48-0.08,0.63-0.08c0.45,0,0.46,0.22,0.46,0.59
				v10.49c0,0.63-0.09,0.77-1.1,0.96v1.48l7.35-1.39v-1.48c-0.26,0.05-0.48,0.08-0.63,0.08c-0.4,0-0.46-0.19-0.46-0.62v-2.07
				l1.16-0.22c0.48,1.28,1.27,2.84,2.29,3.88l6.04-1.14v-1.48c-0.2,0.03-0.36,0.05-0.48,0.05
				C330.93,333.24,330.78,333.09,330.59,332.9z M326.11,334.82c-0.93-1.11-1.53-2.58-1.76-3.2l-0.28-0.73l-0.76,0.14l-1.16,0.22
				l-0.74,0.15v2.83c0,0.77,0.28,1.16,0.62,1.36l-4.3,0.8c0.22-0.26,0.36-0.63,0.36-1.19v-10.49c0-0.76-0.29-1.14-0.65-1.33
				c1.85-0.45,4.64-1.08,5.95-1.33c1.19-0.23,2.26-0.34,3.2-0.34c3.85,0,4.3,1.84,4.3,3.23c0,2.16-1.59,3.54-2.94,4.31l-0.77,0.45
				l0.42,0.79c0.62,1.13,1.41,2.01,2.33,3.04c0.12,0.12,0.29,0.31,0.59,0.45L326.11,334.82z M325.29,324.21
				c-0.49,0-1.13,0.08-1.95,0.23c-0.39,0.08-0.83,0.19-1.24,0.28l-0.7,0.17v4.43l1-0.09c0.46-0.05,0.96-0.14,1.31-0.2
				c1.02-0.2,3.72-0.71,3.72-2.9C327.46,325.41,327.18,324.21,325.29,324.21z M323.56,328.11c-0.37,0.08-0.82,0.15-1.24,0.2v-2.7
				c0.39-0.09,0.82-0.2,1.21-0.26c0.19-0.05,0.37-0.08,0.54-0.09c0.32-0.06,0.62-0.09,0.87-0.11c0.12-0.02,0.25-0.02,0.36-0.02
				c0.37,0,0.63,0.05,0.82,0.14c0.08,0.03,0.14,0.08,0.17,0.12c0.2,0.17,0.26,0.42,0.26,0.73
				C326.54,327.03,325.77,327.7,323.56,328.11z M325.29,324.21c-0.49,0-1.13,0.08-1.95,0.23c-0.39,0.08-0.83,0.19-1.24,0.28
				l-0.7,0.17v4.43l1-0.09c0.46-0.05,0.96-0.14,1.31-0.2c1.02-0.2,3.72-0.71,3.72-2.9C327.46,325.41,327.18,324.21,325.29,324.21z
				 M323.56,328.11c-0.37,0.08-0.82,0.15-1.24,0.2v-2.7c0.39-0.09,0.82-0.2,1.21-0.26c0.19-0.05,0.37-0.08,0.54-0.09
				c0.32-0.06,0.62-0.09,0.87-0.11c0.12-0.02,0.25-0.02,0.36-0.02c0.37,0,0.63,0.05,0.82,0.14c0.08,0.03,0.14,0.08,0.17,0.12
				c0.2,0.17,0.26,0.42,0.26,0.73C326.54,327.03,325.77,327.7,323.56,328.11z M325.29,324.21c-0.49,0-1.13,0.08-1.95,0.23
				c-0.39,0.08-0.83,0.19-1.24,0.28l-0.7,0.17v4.43l1-0.09c0.46-0.05,0.96-0.14,1.31-0.2c1.02-0.2,3.72-0.71,3.72-2.9
				C327.46,325.41,327.18,324.21,325.29,324.21z M323.56,328.11c-0.37,0.08-0.82,0.15-1.24,0.2v-2.7c0.39-0.09,0.82-0.2,1.21-0.26
				c0.19-0.05,0.37-0.08,0.54-0.09c0.32-0.06,0.62-0.09,0.87-0.11c0.12-0.02,0.25-0.02,0.36-0.02c0.37,0,0.63,0.05,0.82,0.14
				c0.08,0.03,0.14,0.08,0.17,0.12c0.2,0.17,0.26,0.42,0.26,0.73C326.54,327.03,325.77,327.7,323.56,328.11z"/>
			<path class="st5" d="M358.16,324.81l-1.36-0.23c-0.46,1.11-0.82,1.41-1.45,1.53l-6.37,1.2v-1.37l3.4-0.63
				c0.12-0.03,0.22-0.05,0.29-0.05c0.14,0,0.25,0.03,0.29,0.14c0.06,0.09,0.09,0.23,0.11,0.43l1.55-0.29v-5.39l-1.42,0.28
				c-0.05,0.53-0.14,0.66-0.82,0.79l-3.4,0.63v-1.19l6.4-1.2c0.11-0.02,0.2-0.03,0.28-0.03c0.42,0,0.73,0.25,1.11,0.97l1.31-0.74
				l-1.13-4.93c-0.39,0.23-0.88,0.45-1.53,0.57l-12.7,2.39v1.48c0.23-0.03,0.4-0.06,0.56-0.06c0.45,0,0.54,0.22,0.54,0.68v10.31
				c0,0.63-0.12,0.85-1.1,1.04v1.5l12.79-2.43c0.08-0.02,0.15-0.02,0.25-0.02c0.16-0.02,0.32-0.01,0.49,0
				c0.29,0.02,0.57,0.06,0.77,0.11L358.16,324.81z M355.35,329.3l-11.02,2.07c0.26-0.28,0.42-0.7,0.42-1.28v-10.31
				c0-0.82-0.34-1.22-0.7-1.41l11.54-2.19c0.25-0.05,0.48-0.09,0.71-0.17l0.71,3.11c-0.32-0.36-0.76-0.62-1.36-0.62
				c-0.14,0-0.28,0.02-0.45,0.05l-6.4,1.21l-0.74,0.14v3.06l1.08-0.2l3.4-0.65c0.48-0.09,0.88-0.23,1.16-0.53v3.18l-0.05,0.02
				c-0.31-0.39-0.76-0.43-0.99-0.43c-0.12,0-0.28,0.02-0.46,0.05l-3.4,0.65l-0.74,0.14v3.24l1.08-0.22l6.37-1.19
				c0.62-0.12,1.07-0.4,1.41-0.82l-0.63,3.06c-0.09-0.02-0.19-0.02-0.28-0.02C355.78,329.24,355.55,329.26,355.35,329.3z"/>
			<path class="st5" d="M383.45,319.55c-0.46,1.1-0.82,1.41-1.45,1.51l-6.37,1.21v-1.38l3.4-0.63c0.12-0.03,0.22-0.03,0.29-0.03
				c0.28,0,0.37,0.14,0.4,0.56l1.55-0.29v-5.38l-1.42,0.26c-0.05,0.53-0.14,0.66-0.82,0.79l-3.4,0.65v-1.19l6.4-1.22
				c0.11-0.02,0.19-0.03,0.28-0.03c0.2,0,0.39,0.06,0.56,0.22c0.05,0.03,0.09,0.08,0.14,0.14c0.14,0.15,0.28,0.36,0.42,0.63
				l1.31-0.74l-1.13-4.93c-0.39,0.22-0.88,0.43-1.53,0.56l-12.7,2.39v1.5c0.23-0.05,0.4-0.06,0.54-0.06c0.46,0,0.56,0.22,0.56,0.66
				v10.31c0,0.63-0.12,0.87-1.1,1.04v1.5l12.79-2.41c0.15-0.03,0.32-0.05,0.49-0.05c0.37,0,0.76,0.06,1,0.14l1.14-5.5L383.45,319.55
				z M382.94,324.22c-0.09,0-0.19-0.02-0.28-0.02c-0.23,0-0.46,0.03-0.66,0.06l-11.02,2.09c0.26-0.29,0.42-0.71,0.42-1.3v-10.31
				c0-0.8-0.34-1.21-0.7-1.41l11.54-2.18c0.25-0.05,0.48-0.11,0.71-0.19l0.71,3.12c-0.32-0.37-0.76-0.63-1.36-0.63
				c-0.14,0-0.28,0.02-0.45,0.05l-6.4,1.21l-0.74,0.14v3.08l1.08-0.22l3.4-0.63c0.48-0.09,0.88-0.23,1.16-0.54v3.2h-0.05
				c-0.31-0.37-0.76-0.43-0.99-0.43c-0.14,0-0.28,0.02-0.46,0.05l-3.4,0.65l-0.74,0.14v3.24l1.08-0.2l6.37-1.21
				c0.62-0.12,1.07-0.4,1.41-0.8L382.94,324.22z"/>
			<path class="st5" d="M411.62,304.32c-0.31,0.23-0.88,0.53-1.56,0.65l-11.7,2.21c-0.22,0.05-0.42,0.06-0.62,0.06
				c-0.34,0-0.66-0.05-0.94-0.12l-1.13,5.58l1.36,0.12c0.39-0.99,0.65-1.34,1.39-1.48l3.21-0.6v8.47c0,0.65-0.19,0.83-1.1,1.02v1.48
				l7.35-1.39v-1.48c-0.23,0.05-0.4,0.06-0.56,0.06c-0.4,0-0.54-0.17-0.54-0.62v-8.51l3.2-0.6c0.12-0.02,0.23-0.03,0.32-0.03
				c0.48,0,0.77,0.26,1.08,0.97l1.36-0.63L411.62,304.32z M410.32,308.2c-0.15,0-0.31,0.02-0.49,0.05l-3.2,0.62l-0.74,0.14v9.27
				c0,0.71,0.29,1.14,0.7,1.36l-4.43,0.83c0.25-0.28,0.4-0.68,0.4-1.27v-9.58l-1.08,0.22l-3.21,0.6c-0.6,0.11-1.02,0.36-1.31,0.68
				l0.6-2.97h0.2c0.26,0,0.53-0.02,0.79-0.06l11.7-2.21c0.25-0.05,0.51-0.12,0.76-0.2l0.68,3.11
				C411.37,308.46,410.94,308.2,410.32,308.2z"/>
		</g>
		<g>
			<g>
				<path class="st5" d="M185.82,251.74c-0.09,1.64-0.39,2.33-0.79,3.15l-8.05,15.7l-9.12-12.45c-0.4-0.57-0.65-1.25-0.74-2.86
					l-16.1,3.04V262c0.71-0.14,1.24-0.22,1.62-0.22c0.96,0,1.08,0.46,1.08,1.62v25.74c0,1.44-0.29,1.93-2.7,2.38v3.68l16.98-3.2
					v-3.68c-0.62,0.11-1.11,0.17-1.5,0.17c-1.02,0-1.25-0.45-1.25-1.51v-10.95l8.75,11.06l5.05-0.96l7.69-14.25v11.03
					c0,1.62-0.29,1.92-2.69,2.38v3.68l18.15-3.43v-3.68c-0.7,0.12-1.21,0.2-1.59,0.2c-0.99,0-1.11-0.46-1.11-1.56v-25.76
					c0-1.51,0.29-1.96,2.7-2.43v-3.68L185.82,251.74z M198.29,254.75v25.76c0,0.76,0,2.78,2.33,2.78c0.11,0,0.23,0,0.36-0.02v1.25
					l-15.7,2.97v-1.2c1.82-0.45,2.7-1.14,2.7-3.37v-15.88l-2.32,4.26l-7.42,13.74l-3.75,0.71l-8.27-10.48l-2.19-2.77v14.48
					c0,1.82,0.83,2.75,2.47,2.75c0.09,0,0.19,0,0.28-0.02v1.27l-14.52,2.73v-1.21c1.79-0.48,2.69-1.28,2.69-3.37v-25.74
					c0-0.85,0-2.84-2.3-2.84c-0.12,0-0.25,0-0.39,0.02v-1.25l13.78-2.6c0.15,0.88,0.42,1.53,0.83,2.12l9.12,12.47l1.17,1.59
					l0.91-1.76l8.07-15.73c0.36-0.74,0.65-1.44,0.8-2.64l14.03-2.64v1.22C199.15,251.83,198.29,252.62,198.29,254.75z"/>
				<path class="st5" d="M236.09,241.67c-1.53,0-3.09,0.14-4.65,0.43c-10.77,2.04-21.97,11.62-22.13,23.75v0.25
					c0,10.78,8.08,15.54,17.07,15.54c1.65,0,3.34-0.17,5.01-0.48c10.8-2.04,22.23-10.57,22.23-23.42v-0.2
					C253.52,246.87,245.24,241.67,236.09,241.67z M231.68,243.3c1.47-0.28,2.97-0.42,4.43-0.42c7.51,0,16.29,3.89,16.29,14.85
					c0,11.96-10.68,20.23-21.23,22.22c-1.59,0.31-3.21,0.46-4.77,0.46c-7.66,0-15.85-3.77-15.85-14.32
					C210.54,254.49,221.51,245.22,231.68,243.3z M229.73,272.04c0.63,0,1.28-0.06,1.9-0.17c5.05-0.96,10.17-5.25,10.17-11.62
					c0-6.5-4.62-8.81-8.58-8.81c-0.66,0-1.34,0.06-2.01,0.19c-4.88,0.93-10.07,5.45-10.07,12.01
					C221.14,269.42,225.59,272.04,229.73,272.04z M222.39,263.39c0.12-5.75,4.65-9.72,9.05-10.55c0.59-0.11,1.17-0.15,1.78-0.15
					c3.6,0,7.25,2.07,7.34,7.32c0.02,0.08,0.02,0.17,0.02,0.25c0,5.98-5.01,9.63-9.18,10.41c-0.54,0.09-1.11,0.15-1.67,0.15
					c-3.66,0-7.35-2.26-7.35-7.18C222.37,263.56,222.37,263.47,222.39,263.39z M233.22,251.45c-0.66,0-1.34,0.06-2.01,0.19
					c-4.88,0.93-10.07,5.45-10.07,12.01c0,5.78,4.45,8.41,8.59,8.41c0.63,0,1.28-0.06,1.9-0.17c5.05-0.96,10.17-5.25,10.17-11.62
					C241.8,253.75,237.18,251.45,233.22,251.45z M231.4,270.67c-0.54,0.09-1.11,0.15-1.67,0.15c-3.66,0-7.35-2.26-7.35-7.18
					c0-0.08,0-0.17,0.02-0.25c0.12-5.75,4.65-9.72,9.05-10.55c0.59-0.11,1.17-0.15,1.78-0.15c3.6,0,7.25,2.07,7.34,7.32
					c0.02,0.08,0.02,0.17,0.02,0.25C240.58,266.23,235.57,269.88,231.4,270.67z M233.22,251.45c-0.66,0-1.34,0.06-2.01,0.19
					c-4.88,0.93-10.07,5.45-10.07,12.01c0,5.78,4.45,8.41,8.59,8.41c0.63,0,1.28-0.06,1.9-0.17c5.05-0.96,10.17-5.25,10.17-11.62
					C241.8,253.75,237.18,251.45,233.22,251.45z M231.4,270.67c-0.54,0.09-1.11,0.15-1.67,0.15c-3.66,0-7.35-2.26-7.35-7.18
					c0-0.08,0-0.17,0.02-0.25c0.12-5.75,4.65-9.72,9.05-10.55c0.59-0.11,1.17-0.15,1.78-0.15c3.6,0,7.25,2.07,7.34,7.32
					c0.02,0.08,0.02,0.17,0.02,0.25C240.58,266.23,235.57,269.88,231.4,270.67z"/>
				<path class="st5" d="M298.66,255.56c-0.06-4.2-2.44-6.38-5.24-7.35c0.12-0.09,0.23-0.2,0.36-0.31c2.23-1.92,3.86-4.36,3.86-7.4
					v-0.17c-0.08-6.01-4.34-7.71-9.75-7.71c-3.09,0-6.57,0.56-9.83,1.17c-5.93,1.13-12.65,2.78-17.32,4.02v3.48
					c0.57-0.11,1.04-0.17,1.39-0.17c1.08,0,1.3,0.54,1.3,2.01v25.22c0,1.73-0.23,2.01-2.69,2.47v3.63
					c4.81-0.56,11.03-1.48,18.15-2.83c9.18-1.75,19.78-5.7,19.78-15.85C298.67,255.7,298.67,255.62,298.66,255.56z M261.96,271.81
					c2.01-0.51,2.7-1.25,2.7-3.48v-25.22c0-0.96,0-3.23-2.52-3.23h-0.19v-1.14c3.89-1,10.46-2.64,16.33-3.75
					c3.01-0.57,6.52-1.14,9.6-1.14c5.9,0,8.53,2.04,8.53,6.64c0,2.44-1.27,4.71-3.77,6.77l-1.7,1.39l2.07,0.71
					c2.94,1.02,4.42,3.17,4.42,6.4c0,7.36-6.32,12.28-18.77,14.65c-7.23,1.36-12.9,2.18-16.7,2.66V271.81z M286.94,257.86
					c0-1.36-0.68-2.98-3.89-2.98c-0.96,0-2.12,0.14-3.55,0.4c-0.9,0.17-2.39,0.45-3.63,0.79l-0.9,0.25v6.92l1.36-0.15
					c1.36-0.15,2.8-0.39,3.63-0.54C281.68,262.22,286.94,261.23,286.94,257.86z M276.19,261.86v-4.6c1.17-0.32,2.66-0.6,3.54-0.77
					c1.42-0.26,2.5-0.39,3.32-0.39c2.1,0,2.56,0.73,2.64,1.45v0.05c0.02,0.09,0.02,0.17,0.02,0.26c0,0.97-0.73,2.49-5.98,3.48
					C278.89,261.51,277.47,261.72,276.19,261.86z M279.2,249.16c0.26-0.06,0.53-0.11,0.76-0.15c4.88-0.93,5.9-2.81,5.9-4.23
					c0-0.43-0.19-2.53-3.71-2.53c-0.76,0-1.65,0.09-2.66,0.28c-0.88,0.17-2.1,0.48-3.63,0.9l-0.9,0.25v6.12l1.36-0.14
					C277.27,249.53,278.31,249.33,279.2,249.16z M276.19,244.59c1.13-0.31,2.5-0.66,3.54-0.86c0.99-0.19,1.78-0.26,2.43-0.26
					c1.73,0,2.32,0.59,2.44,1.08c0.02,0.08,0.03,0.15,0.03,0.23c0,0.88-0.77,2.26-4.9,3.03c-0.99,0.19-2.36,0.49-3.54,0.62V244.59z
					 M283.05,254.88c-0.96,0-2.12,0.14-3.55,0.4c-0.9,0.17-2.39,0.45-3.63,0.79l-0.9,0.25v6.92l1.36-0.15
					c1.36-0.15,2.8-0.39,3.63-0.54c1.72-0.32,6.98-1.31,6.98-4.68C286.94,256.5,286.26,254.88,283.05,254.88z M279.73,261.34
					c-0.83,0.17-2.26,0.39-3.54,0.53v-4.6c1.17-0.32,2.66-0.6,3.54-0.77c1.42-0.26,2.5-0.39,3.32-0.39c2.1,0,2.56,0.73,2.64,1.45
					v0.05c0.02,0.09,0.02,0.17,0.02,0.26C285.71,258.83,284.98,260.35,279.73,261.34z M282.15,242.24c-0.76,0-1.65,0.09-2.66,0.28
					c-0.88,0.17-2.1,0.48-3.63,0.9l-0.9,0.25v6.12l1.36-0.14c0.94-0.11,1.98-0.31,2.87-0.48c0.26-0.06,0.53-0.11,0.76-0.15
					c4.88-0.93,5.9-2.81,5.9-4.23C285.86,244.34,285.68,242.24,282.15,242.24z M279.73,247.8c-0.99,0.19-2.36,0.49-3.54,0.62v-3.83
					c1.13-0.31,2.5-0.66,3.54-0.86c0.99-0.19,1.78-0.26,2.43-0.26c1.73,0,2.32,0.59,2.44,1.08c0.02,0.08,0.03,0.15,0.03,0.23
					C284.63,245.65,283.85,247.03,279.73,247.8z M283.05,254.88c-0.96,0-2.12,0.14-3.55,0.4c-0.9,0.17-2.39,0.45-3.63,0.79
					l-0.9,0.25v6.92l1.36-0.15c1.36-0.15,2.8-0.39,3.63-0.54c1.72-0.32,6.98-1.31,6.98-4.68
					C286.94,256.5,286.26,254.88,283.05,254.88z M279.73,261.34c-0.83,0.17-2.26,0.39-3.54,0.53v-4.6c1.17-0.32,2.66-0.6,3.54-0.77
					c1.42-0.26,2.5-0.39,3.32-0.39c2.1,0,2.56,0.73,2.64,1.45v0.05c0.02,0.09,0.02,0.17,0.02,0.26
					C285.71,258.83,284.98,260.35,279.73,261.34z M279.2,249.16c0.26-0.06,0.53-0.11,0.76-0.15c4.88-0.93,5.9-2.81,5.9-4.23
					c0-0.43-0.19-2.53-3.71-2.53c-0.76,0-1.65,0.09-2.66,0.28c-0.88,0.17-2.1,0.48-3.63,0.9l-0.9,0.25v6.12l1.36-0.14
					C277.27,249.53,278.31,249.33,279.2,249.16z M276.19,244.59c1.13-0.31,2.5-0.66,3.54-0.86c0.99-0.19,1.78-0.26,2.43-0.26
					c1.73,0,2.32,0.59,2.44,1.08c0.02,0.08,0.03,0.15,0.03,0.23c0,0.88-0.77,2.26-4.9,3.03c-0.99,0.19-2.36,0.49-3.54,0.62V244.59z"
					/>
				<path class="st5" d="M305.87,229.07v3.68c0.49-0.09,0.91-0.14,1.24-0.14c1.22,0,1.47,0.6,1.47,1.65v25.65
					c0,1.28-0.29,1.92-2.7,2.38v3.68l18.15-3.43v-3.68c-0.57,0.11-1.02,0.15-1.38,0.15c-1.14,0-1.31-0.54-1.31-1.51v-25.65
					c0-1.38,0.34-2.09,2.69-2.52v-3.69L305.87,229.07z M320.1,231.86v25.65c0,1.82,0.87,2.75,2.55,2.75h0.15v1.27l-15.7,2.97v-1.22
					c1.95-0.56,2.69-1.53,2.69-3.35v-25.65c0-2.38-1.45-2.87-2.69-2.87v-1.3l15.7-2.97v1.24
					C320.87,228.94,320.1,229.97,320.1,231.86z"/>
				<path class="st5" d="M366.87,241.98l-3.34-0.14c-1.08,2.61-1.96,3.32-2.9,3.49l-14.23,2.69v-20.8c0-1.48,0.45-2.15,2.7-2.58
					v-3.72l-18.15,3.43v3.68c0.48-0.09,0.87-0.14,1.19-0.14c1.27,0,1.51,0.66,1.51,1.79v25.4c0,1.44-0.4,2.04-2.7,2.47v3.69
					l29.54-5.58c0.43-0.09,0.87-0.12,1.27-0.12c0.87,0,1.67,0.15,2.41,0.36l2.8-13.92H366.87z M332.17,258.54
					c1.7-0.49,2.7-1.36,2.7-3.46v-25.4c0-1.99-0.91-3-2.7-3.01v-1.3l15.71-2.97v1.27c-1.65,0.49-2.7,1.41-2.7,3.55v22.28l1.45-0.28
					l14.23-2.69c1.42-0.26,2.46-1.28,3.46-3.43l1.16,0.05l-2.27,11.28c-0.45-0.06-0.93-0.11-1.45-0.11c-0.51,0-1,0.05-1.5,0.12
					l-28.09,5.32V258.54z"/>
				<path class="st5" d="M411.23,233.93l-3.29-0.53c-1.13,2.72-2.02,3.48-3.58,3.77l-15.7,2.97v-3.38l8.39-1.59
					c0.28-0.05,0.53-0.08,0.73-0.08c0.66,0,0.91,0.34,0.99,1.38l3.82-0.73v-13.29l-3.52,0.66c-0.11,1.3-0.34,1.64-2.01,1.95
					l-8.39,1.59v-2.95l15.79-2.98c0.25-0.05,0.46-0.06,0.68-0.06c1.04,0,1.78,0.6,2.75,2.41l3.24-1.84l-0.09-0.4l-2.7-11.77
					c-0.93,0.57-2.16,1.1-3.79,1.39l-31.35,5.93v3.68c0.56-0.11,0.99-0.15,1.34-0.15c1.13,0,1.36,0.53,1.36,1.65v25.46
					c0,1.56-0.29,2.12-2.7,2.56v3.68l31.6-5.96c0.39-0.08,0.8-0.11,1.22-0.11c0.93,0,1.85,0.15,2.47,0.34l2.84-13.58L411.23,233.93z
					 M374.43,250.55c2.01-0.56,2.69-1.51,2.69-3.54v-25.46c0-1.92-0.87-2.89-2.58-2.89h-0.11v-1.28l30.35-5.73
					c0.97-0.17,1.87-0.45,2.7-0.79l2.24,9.75l-1.39,0.8c-0.76-1.13-1.73-1.99-3.2-1.99c-0.28,0-0.57,0.03-0.91,0.09l-15.79,2.98
					l-1,0.2v5.44l1.45-0.28l8.39-1.59c1.75-0.32,2.55-0.88,2.86-2.1l1.24-0.23v10.8l-1.67,0.31c-0.36-0.79-0.99-1.19-1.92-1.19
					c-0.26,0-0.57,0.05-0.96,0.11l-8.39,1.59l-1,0.19v5.89l1.45-0.28l15.71-2.97c1.89-0.36,3-1.3,4.09-3.62l1.17,0.19l-2.33,11.12
					c-0.49-0.06-1.02-0.11-1.51-0.11c-0.53,0-1,0.05-1.44,0.12l-30.14,5.69V250.55z"/>
			</g>
			<g>
				<path class="st5" d="M188.54,315.82c0.12-0.11,0.25-0.2,0.37-0.32c2.56-2.19,4.45-5.02,4.45-8.48c0-0.08,0-0.15-0.02-0.22
					c-0.09-6.86-4.96-8.78-11.11-8.78c-3.54,0-7.49,0.63-11.22,1.34c-6.77,1.27-14.45,3.17-19.76,4.57v3.97
					c0.66-0.12,1.19-0.2,1.61-0.2c1.22,0,1.47,0.63,1.47,2.3v28.77c0,1.96-0.28,2.3-3.07,2.83v4.14c5.49-0.65,12.59-1.7,20.72-3.24
					c10.46-1.96,22.56-6.49,22.56-18.08v-0.2C194.45,319.42,191.73,316.91,188.54,315.82z M152.47,342.59
					c2.33-0.54,3.09-1.33,3.09-3.82v-28.77c0-1.14,0-3.52-2.7-3.52c-0.12,0-0.25,0-0.39,0.02v-1.62c5.15-1.34,12.3-3.09,18.77-4.31
					c3.45-0.66,7.46-1.33,10.99-1.33c6.84,0,9.9,2.39,9.9,7.77c0,2.83-1.48,5.47-4.37,7.85l-1.7,1.39l2.07,0.73
					c3.43,1.17,5.18,3.68,5.18,7.45c0,8.5-7.26,14.18-21.57,16.87c-8.37,1.59-14.93,2.53-19.27,3.07V342.59z M180.98,326.82
					c0-2.13-1.44-3.23-4.26-3.23c-1.08,0-2.41,0.15-4.03,0.46c-1.02,0.19-2.73,0.51-4.11,0.9l-0.91,0.25v7.57l1.36-0.15
					c1.55-0.17,3.18-0.43,4.13-0.62C178.42,331,180.98,329.3,180.98,326.82z M168.88,331.39v-5.27c1.34-0.36,3.03-0.68,4.03-0.86
					c1.62-0.31,2.86-0.43,3.8-0.43c2.49,0,2.95,0.88,3.01,1.71c0,0.02,0.02,0.03,0,0.05c0.02,0.08,0.02,0.15,0.02,0.23
					c0,1.11-0.83,2.84-6.83,3.97C171.97,330.97,170.35,331.22,168.88,331.39z M172.3,316.71c0.31-0.06,0.59-0.11,0.85-0.17
					c5.45-1.02,6.6-3.11,6.6-4.67c0-0.45-0.2-2.7-4.06-2.7c-0.85,0-1.85,0.11-2.98,0.32c-1,0.19-2.39,0.53-4.14,1l-0.9,0.25v6.66
					l1.36-0.14C170.1,317.16,171.28,316.91,172.3,316.71z M168.88,311.68c1.3-0.36,2.86-0.76,4.03-0.97
					c1.13-0.22,2.04-0.31,2.77-0.31c2.09,0,2.72,0.73,2.81,1.3c0.03,0.06,0.03,0.12,0.03,0.19c0,1-0.9,2.58-5.61,3.46
					c-1.11,0.22-2.69,0.57-4.03,0.71V311.68z M176.72,323.59c-1.08,0-2.41,0.15-4.03,0.46c-1.02,0.19-2.73,0.51-4.11,0.9l-0.91,0.25
					v7.57l1.36-0.15c1.55-0.17,3.18-0.43,4.13-0.62c5.27-0.99,7.83-2.69,7.83-5.18C180.98,324.68,179.54,323.59,176.72,323.59z
					 M172.92,330.79c-0.94,0.19-2.56,0.43-4.03,0.6v-5.27c1.34-0.36,3.03-0.68,4.03-0.86c1.62-0.31,2.86-0.43,3.8-0.43
					c2.49,0,2.95,0.88,3.01,1.71c0,0.02,0.02,0.03,0,0.05c0.02,0.08,0.02,0.15,0.02,0.23C179.75,327.93,178.91,329.66,172.92,330.79
					z M175.68,309.17c-0.85,0-1.85,0.11-2.98,0.32c-1,0.19-2.39,0.53-4.14,1l-0.9,0.25v6.66l1.36-0.14
					c1.08-0.11,2.26-0.36,3.28-0.56c0.31-0.06,0.59-0.11,0.85-0.17c5.45-1.02,6.6-3.11,6.6-4.67
					C179.75,311.43,179.54,309.17,175.68,309.17z M172.92,315.34c-1.11,0.22-2.69,0.57-4.03,0.71v-4.37
					c1.3-0.36,2.86-0.76,4.03-0.97c1.13-0.22,2.04-0.31,2.77-0.31c2.09,0,2.72,0.73,2.81,1.3c0.03,0.06,0.03,0.12,0.03,0.19
					C178.52,312.88,177.63,314.46,172.92,315.34z M176.72,323.59c-1.08,0-2.41,0.15-4.03,0.46c-1.02,0.19-2.73,0.51-4.11,0.9
					l-0.91,0.25v7.57l1.36-0.15c1.55-0.17,3.18-0.43,4.13-0.62c5.27-0.99,7.83-2.69,7.83-5.18
					C180.98,324.68,179.54,323.59,176.72,323.59z M172.92,330.79c-0.94,0.19-2.56,0.43-4.03,0.6v-5.27
					c1.34-0.36,3.03-0.68,4.03-0.86c1.62-0.31,2.86-0.43,3.8-0.43c2.49,0,2.95,0.88,3.01,1.71c0,0.02,0.02,0.03,0,0.05
					c0.02,0.08,0.02,0.15,0.02,0.23C179.75,327.93,178.91,329.66,172.92,330.79z M172.3,316.71c0.31-0.06,0.59-0.11,0.85-0.17
					c5.45-1.02,6.6-3.11,6.6-4.67c0-0.45-0.2-2.7-4.06-2.7c-0.85,0-1.85,0.11-2.98,0.32c-1,0.19-2.39,0.53-4.14,1l-0.9,0.25v6.66
					l1.36-0.14C170.1,317.16,171.28,316.91,172.3,316.71z M168.88,311.68c1.3-0.36,2.86-0.76,4.03-0.97
					c1.13-0.22,2.04-0.31,2.77-0.31c2.09,0,2.72,0.73,2.81,1.3c0.03,0.06,0.03,0.12,0.03,0.19c0,1-0.9,2.58-5.61,3.46
					c-1.11,0.22-2.69,0.57-4.03,0.71V311.68z"/>
				<path class="st5" d="M244.99,313.87l-3.83-0.15c-1.22,2.97-2.24,3.77-3.29,3.97l-16.24,3.07v-23.73c0-1.68,0.49-2.46,3.07-2.94
					v-4.26l-20.72,3.92v4.19c0.54-0.09,0.99-0.14,1.36-0.14c1.44,0,1.73,0.74,1.73,2.02v29c0,1.62-0.45,2.32-3.09,2.81v4.2
					l33.71-6.37c0.49-0.09,0.97-0.12,1.44-0.12c1,0,1.92,0.17,2.75,0.4l3.2-15.88H244.99z M205.22,332.63
					c2.26-0.62,3.07-1.68,3.07-3.8v-29c0-2.16-0.99-3.26-2.95-3.26h-0.12v-1.81l18.26-3.45v1.81c-2.22,0.62-3.09,1.75-3.09,3.91
					v25.22l1.45-0.28l16.24-3.07c1.58-0.29,2.73-1.45,3.86-3.92l1.65,0.06l-2.66,13.26c-0.54-0.09-1.16-0.17-1.81-0.17
					c-0.56,0-1.13,0.06-1.67,0.15l-32.25,6.09V332.63z"/>
				<path class="st5" d="M301.1,313.22c-0.96,0-1.33-0.45-1.93-1.79l-12.08-26.93c-0.17-0.42-0.4-1.1-0.4-1.55
					c0-0.05,0.02-0.09,0.05-0.15c0.09-0.25,0.48-0.57,1.47-0.76v-4.19l-21.32,4.02v4.2c0.19-0.03,0.36-0.06,0.51-0.06
					c0.53,0,0.73,0.22,0.79,0.39c0.03,0.06,0.05,0.12,0.05,0.15c0,0.28-0.23,1.1-0.57,1.95l-12.14,31.12
					c-0.79,2.06-0.96,2.49-3.35,2.94v4.2l19.87-3.75v-4.2c-0.49,0.09-0.88,0.14-1.16,0.14c-0.66,0-0.8-0.2-0.8-0.32
					c0-0.06,0-0.19,0.03-0.34c0,0-0.02,0,0-0.02c0-0.11,0.03-0.25,0.08-0.4c0.06-0.23,0.12-0.46,0.17-0.63
					c0.54,0.02,1.1,0.03,1.67,0.03c1.72,0,3.54-0.12,5.39-0.48c2.41-0.45,4.53-1.24,6.83-2.18c0.05,0.15,0.17,0.36,0.22,0.51
					c0.08,0.17,0.15,0.34,0.19,0.48c0.03,0.08,0.05,0.15,0.05,0.22c0,0.49-0.28,0.66-2.3,1.05v4.19l20.16-3.8v-4.2
					C301.93,313.16,301.47,313.22,301.1,313.22z M283.61,317.86c1.33-0.31,2.29-0.74,2.29-2.06c0-0.42-0.15-0.79-0.31-1.14
					c-0.03-0.11-0.09-0.22-0.14-0.32c-0.03-0.06-0.05-0.11-0.06-0.15l-0.43-1.2l-1.19,0.48c-2.46,1-4.4,1.72-6.6,2.12
					c-1.61,0.31-3.29,0.46-5.16,0.46c-0.56,0-1.1-0.02-1.61-0.05l-0.94-0.03l-0.29,0.9c-0.05,0.19-0.11,0.43-0.17,0.7
					c-0.15,0.51-0.15,0.91-0.15,1.07c0,0.15,0.05,1.51,1.96,1.55v1.82l-17.43,3.29v-1.75c2.05-0.56,2.5-1.44,3.28-3.46l12.14-31.12
					c0.06-0.15,0.65-1.65,0.65-2.39c0-0.71-0.46-1.42-1.34-1.67v-1.99l18.88-3.57v1.79c-1.34,0.54-1.51,1.42-1.51,1.84
					c0,0.73,0.34,1.65,0.49,2.04l12.1,26.95c0.62,1.37,1.28,2.52,3.04,2.52c0.06,0,0.14-0.02,0.2-0.02v1.78l-17.69,3.35V317.86z
					 M277.52,295.41l-1.33-3.28l-0.99,3.38l-3.07,10.55l-0.45,1.51l1.59,0.06h0.53c0.97,0,1.88-0.09,3.15-0.34
					c1.39-0.26,2.55-0.59,3.65-1.05l1.14-0.46l-0.46-1.13L277.52,295.41z M276.72,306.1c-1.25,0.25-2.09,0.32-2.92,0.32
					c-0.15,0-0.32,0-0.49-0.02l0.12-0.45l2.97-10.09l3.58,8.87l0.15,0.39C279.13,305.54,278.06,305.85,276.72,306.1z M281.27,304.66
					l-3.75-9.26l-1.33-3.28l-0.99,3.38l-3.07,10.55l-0.45,1.51l1.59,0.06h0.53c0.97,0,1.88-0.09,3.15-0.34
					c1.39-0.26,2.55-0.59,3.65-1.05l1.14-0.46L281.27,304.66z M276.72,306.1c-1.25,0.25-2.09,0.32-2.92,0.32
					c-0.15,0-0.32,0-0.49-0.02l0.12-0.45l2.97-10.09l3.58,8.87l0.15,0.39C279.13,305.54,278.06,305.85,276.72,306.1z M281.27,304.66
					l-3.75-9.26l-1.33-3.28l-0.99,3.38l-3.07,10.55l-0.45,1.51l1.59,0.06h0.53c0.97,0,1.88-0.09,3.15-0.34
					c1.39-0.26,2.55-0.59,3.65-1.05l1.14-0.46L281.27,304.66z M276.72,306.1c-1.25,0.25-2.09,0.32-2.92,0.32
					c-0.15,0-0.32,0-0.49-0.02l0.12-0.45l2.97-10.09l3.58,8.87l0.15,0.39C279.13,305.54,278.06,305.85,276.72,306.1z"/>
				<path class="st5" d="M346.48,293.04c-1.9,4.45-4.53,6.34-11.31,7.62c-1.25,0.25-2.41,0.36-3.51,0.36
					c-5.69,0-9.09-3.15-9.09-8.56v-0.29c0.17-6.67,5.86-11.6,12.59-12.89c1.75-0.32,3.21-0.49,4.47-0.49c3.6,0,5.44,1.36,6.84,4.08
					l3.69-2.16l-0.09-0.39l-3.54-14.32c-0.85,0.66-1.85,1.25-2.86,1.44c-1.58,0.29-5.04-0.22-11.65,1.02
					c-13.77,2.6-24.26,13.97-24.35,26.56v0.15c0,0.2,0,0.4,0.02,0.59c0.25,10.88,7.73,17.49,18.63,17.49c1.81,0,3.72-0.19,5.7-0.56
					c6.1-1.16,10.58-3.12,11.59-3.31c0.22-0.05,0.43-0.06,0.65-0.06c0.7,0,1.41,0.19,2.21,0.42l3.69-16.04l-0.09-0.02L346.48,293.04
					z M332.26,269.65c4.34-0.82,7.29-0.85,9.24-0.88c1.04-0.02,1.79-0.02,2.41-0.14c0.65-0.12,1.28-0.37,1.84-0.66l3.01,12.14
					l-1.84,1.07c-1.67-2.52-3.91-3.62-7.29-3.62c-1.31,0-2.86,0.17-4.7,0.51c-8,1.51-13.6,7.43-13.6,14.38
					c0,6.04,3.96,9.78,10.32,9.78c1.17,0,2.43-0.12,3.74-0.37c6.58-1.24,9.7-3.17,11.8-7.45l1.48,0.26l-3.12,13.55
					c-0.43-0.09-0.87-0.14-1.3-0.14c-0.29,0-0.59,0.02-0.87,0.08c-0.39,0.06-0.96,0.26-1.89,0.59c-2.04,0.71-5.47,1.92-9.7,2.72
					c-1.89,0.36-3.72,0.53-5.49,0.53c-10.74,0-17.43-6.44-17.43-16.84C308.9,283.14,318.94,272.17,332.26,269.65z"/>
				<path class="st5" d="M407.2,293.17c-1.16,0-1.92-0.45-2.94-1.68c-3.14-3.77-8.85-12.78-10.86-17.37l0.14-0.15l9.98-11.56
					c1.58-1.81,2.36-2.58,4.99-3.08v-4.2l-23.13,4.37v4.2c0.56-0.11,0.93-0.15,1.19-0.15c0.22,0,0.34,0.03,0.42,0.11
					c0.06,0.03,0.08,0.09,0.08,0.17c0,0.23-0.17,0.59-0.83,1.33l-8.9,10.26v-7.9c0-1.75,0.28-2.35,3.07-2.89v-4.19l-20.72,3.91v4.2
					c0.74-0.14,1.3-0.22,1.73-0.22c1.24,0,1.36,0.6,1.36,1.93v29.16c0,1.75-0.34,2.3-3.09,2.83v4.2l20.72-3.92v-4.19
					c-0.71,0.12-1.27,0.2-1.7,0.2c-1.17,0-1.37-0.56-1.37-1.87v-5.87l4.53-4.84c2.41,5.32,5.21,9.83,8.58,14.68l18.42-3.48v-4.2
					C408.2,293.09,407.66,293.17,407.2,293.17z M376.44,289.97l-0.34,0.36v6.35c0,0.85,0,3.09,2.61,3.09c0.15,0,0.31,0,0.48-0.02
					v1.78l-18.26,3.45v-1.73c2.33-0.62,3.07-1.61,3.07-3.82v-29.16c0-1.04,0-3.15-2.58-3.15c-0.15,0-0.32,0-0.49,0.02v-1.76
					l18.26-3.45v1.73c-2.35,0.6-3.09,1.61-3.09,3.86v11.17l2.16-2.47l8.88-10.23c0.82-0.93,1.14-1.53,1.14-2.16
					c0-0.56-0.36-1.48-1.67-1.5v-1.81l20.66-3.91v1.73c-2.29,0.62-3.23,1.59-4.68,3.26l-10.12,11.71l-0.51,0.57l0.31,0.71
					c2.15,4.9,7.96,13.97,11.05,17.68c1.05,1.27,2.12,2.12,3.88,2.12c0.14,0,0.28,0,0.42-0.02v1.78l-16.63,3.14
					c-2.61-3.79-5.53-8.36-8.02-13.83l-0.76-1.67l-1.25,1.34L376.44,289.97z"/>
			</g>
		</g>
		<polygon class="st6" points="413.42,263.6 408.31,264.57 443.81,294.27 448.91,293.31 		"/>
		<polygon class="st6" points="418.39,315.36 412.8,317.98 448.3,347.69 453.89,345.06 		"/>
	</g>
	<g>
		<path d="M383.79,174.8c0.01-7.95,6.45-14.42,14.45-14.4c7.93,0.02,14.38,6.45,14.37,14.44c-0.02,7.94-6.46,14.39-14.45,14.38
			C390.23,189.21,383.79,182.77,383.79,174.8z M398.2,161.91c-7.11,0-12.9,5.78-12.91,12.9c-0.01,7.12,5.78,12.9,12.88,12.92
			c7.13,0.01,12.93-5.78,12.94-12.9C411.12,167.71,405.32,161.91,398.2,161.91z"/>
		<path d="M398.94,171.34c0,0.07-0.01,0.14-0.01,0.2c0,2.64,0,5.28,0,7.93c0,0.22,0,0.22-0.22,0.22c-0.34,0-0.67,0-1.01,0
			c-0.2,0-0.2,0-0.2-0.2c0-1.35,0-2.7,0-4.05c0-1.77,0-3.54,0-5.3c0-0.2,0-0.2,0.2-0.2c0.79,0,1.59,0,2.38,0
			c0.11,0,0.17,0.02,0.21,0.15c0.21,0.68,0.43,1.35,0.65,2.02c0.33,1.03,0.67,2.05,1,3.08c0.09,0.27,0.17,0.54,0.26,0.8
			c0.02,0.05,0.05,0.1,0.09,0.19c0.05-0.16,0.1-0.28,0.14-0.4c0.27-0.84,0.54-1.68,0.8-2.52c0.18-0.56,0.36-1.12,0.54-1.69
			c0.16-0.5,0.32-1.01,0.47-1.51c0.02-0.08,0.07-0.12,0.15-0.12c0.85,0,1.7,0,2.56,0c0.08,0,0.11,0.03,0.11,0.11
			c0,0.03,0,0.05,0,0.08c0,3.12,0,6.24,0,9.35c0,0.2,0,0.2-0.21,0.2c-0.48,0-0.95,0-1.43,0c-0.14,0-0.17-0.04-0.17-0.18
			c0-2.63,0-5.27,0-7.9c0-0.09,0-0.18,0-0.27c-0.02,0-0.03,0-0.05,0c-0.06,0.18-0.12,0.35-0.17,0.53c-0.21,0.66-0.42,1.32-0.63,1.99
			c-0.18,0.58-0.37,1.17-0.55,1.75c-0.2,0.64-0.4,1.27-0.6,1.91c-0.22,0.69-0.44,1.37-0.66,2.06c-0.03,0.09-0.07,0.12-0.16,0.12
			c-0.21-0.01-0.42-0.01-0.63,0c-0.13,0.01-0.19-0.05-0.22-0.16c-0.11-0.35-0.21-0.69-0.32-1.04c-0.18-0.55-0.36-1.11-0.53-1.66
			c-0.22-0.71-0.44-1.42-0.67-2.13c-0.19-0.6-0.39-1.2-0.58-1.8c-0.16-0.49-0.31-0.97-0.46-1.46c-0.01-0.04-0.02-0.07-0.04-0.1
			C398.97,171.34,398.95,171.34,398.94,171.34z"/>
		<path d="M393.83,175.58c0,1.31,0,2.62,0,3.93c0,0.18,0,0.18-0.18,0.18c-0.51,0-1.01,0-1.52,0c-0.18,0-0.18,0-0.18-0.18
			c0-2.6,0-5.19,0-7.79c0-0.04,0-0.09,0-0.13c0.01-0.11-0.04-0.14-0.14-0.14c-0.17,0-0.33,0-0.5,0c-0.61,0-1.21,0-1.82,0
			c-0.12,0-0.15-0.04-0.15-0.15c0.01-0.4,0.01-0.81,0-1.21c0-0.11,0.03-0.15,0.14-0.15c2.26,0,4.52,0,6.78,0
			c0.12,0,0.15,0.04,0.15,0.16c-0.01,0.39-0.01,0.79,0,1.18c0,0.14-0.05,0.17-0.18,0.17c-0.74-0.01-1.49,0-2.23-0.01
			c-0.14,0-0.17,0.04-0.17,0.18C393.83,172.94,393.83,174.26,393.83,175.58z"/>
	</g>
</g>
</svg>
